<svg width="9" height="9" viewBox="0 0 9 9" fill="none" xmlns="http://www.w3.org/2000/svg">
<g clip-path="url(#clip0)">
<path d="M3.17682 8.98819C3.26473 9.03492 3.35747 8.93371 3.30364 8.84995C3.01149 8.39526 2.73485 7.63014 3.17561 6.64477C3.91064 5.00158 4.35791 4.15052 4.35791 4.15052C4.35791 4.15052 4.59581 5.14369 5.24069 6.02677C5.86135 6.87667 6.20107 7.94557 5.6534 8.83602C5.602 8.9196 5.69263 9.0182 5.77997 8.97351C6.45791 8.62671 7.2183 7.93108 7.30409 6.54678C7.33572 6.12378 7.28828 5.53158 7.05106 4.78427C6.74605 3.83712 6.37107 3.39516 6.15412 3.20537C6.08922 3.14859 5.98829 3.19891 5.99362 3.28497C6.05684 4.30694 5.67237 4.56628 5.45353 3.98182C5.36613 3.74838 5.31516 3.34462 5.31516 2.85291C5.31516 2.03431 5.07766 1.19163 4.55406 0.506863C4.41789 0.328789 4.25857 0.162392 4.07578 0.0204948C4.0096 -0.0308877 3.91367 0.0207595 3.91973 0.104318C3.95994 0.659261 3.92351 2.24969 2.5282 4.14975C1.26307 5.91227 1.7533 7.26587 1.92726 7.63249C2.25985 8.33483 2.72376 8.74729 3.17682 8.98819Z" fill="#E8D8BD"/>
</g>
<defs>
<clipPath id="clip0">
<rect width="9" height="9" fill="white" transform="matrix(-1 0 0 1 9 0)"/>
</clipPath>
</defs>
</svg>
