<svg width="18" height="17" viewBox="0 0 18 17" fill="none" xmlns="http://www.w3.org/2000/svg">
<path d="M0.646447 0.353584C0.841709 0.158322 1.15829 0.158322 1.35355 0.353584L16.9099 15.9099C17.1052 16.1052 17.1052 16.4218 16.9099 16.617C16.7146 16.8123 16.3981 16.8123 16.2028 16.617L0.646447 1.06069C0.451184 0.865428 0.451184 0.548846 0.646447 0.353584Z" fill="white"/>
<path d="M0.353553 16.617C0.158291 16.4217 0.158291 16.1052 0.353553 15.9099L15.9099 0.353556C16.1052 0.158294 16.4217 0.158294 16.617 0.353556C16.8123 0.548818 16.8123 0.865401 16.617 1.06066L1.06066 16.617C0.865398 16.8123 0.548816 16.8123 0.353553 16.617Z" fill="white"/>
</svg>
