<svg width="15" height="15" viewBox="0 0 15 15" fill="none" xmlns="http://www.w3.org/2000/svg">
<path fill-rule="evenodd" clip-rule="evenodd" d="M7.50063 0C5.46375 0 5.20813 0.00890625 4.40812 0.0453125C3.60969 0.081875 3.06469 0.208281 2.58781 0.39375C2.09453 0.585312 1.67609 0.841563 1.25922 1.25859C0.842031 1.67547 0.585781 2.09391 0.393594 2.58703C0.207656 3.06406 0.0810938 3.60922 0.0451563 4.40734C0.009375 5.20734 0 5.46313 0 7.5C0 9.53687 0.0090625 9.79172 0.0453125 10.5917C0.0820312 11.3902 0.208438 11.9352 0.39375 12.412C0.585469 12.9053 0.841719 13.3238 1.25875 13.7406C1.67547 14.1578 2.09391 14.4147 2.58687 14.6062C3.06406 14.7917 3.60922 14.9181 4.4075 14.9547C5.2075 14.9911 5.46297 15 7.49969 15C9.53672 15 9.79156 14.9911 10.5916 14.9547C11.39 14.9181 11.9356 14.7917 12.4128 14.6062C12.9059 14.4147 13.3238 14.1578 13.7405 13.7406C14.1577 13.3238 14.4139 12.9053 14.6061 12.4122C14.7905 11.9352 14.917 11.39 14.9545 10.5919C14.9905 9.79187 14.9998 9.53687 14.9998 7.5C14.9998 5.46313 14.9905 5.2075 14.9545 4.4075C14.917 3.60906 14.7905 3.06406 14.6061 2.58719C14.4139 2.09391 14.1577 1.67547 13.7405 1.25859C13.3233 0.841406 12.9061 0.585156 12.4123 0.39375C11.9342 0.208281 11.3889 0.081875 10.5905 0.0453125C9.79047 0.00890625 9.53578 0 7.49828 0H7.50063ZM6.82781 1.35156C7.0275 1.35125 7.25031 1.35156 7.50063 1.35156C9.50313 1.35156 9.74047 1.35875 10.5312 1.39469C11.2625 1.42812 11.6594 1.55031 11.9237 1.65297C12.2738 1.78891 12.5233 1.95141 12.7856 2.21391C13.0481 2.47641 13.2106 2.72641 13.3469 3.07641C13.4495 3.34047 13.5719 3.73734 13.6052 4.46859C13.6411 5.25922 13.6489 5.49672 13.6489 7.49828C13.6489 9.49984 13.6411 9.73734 13.6052 10.528C13.5717 11.2592 13.4495 11.6561 13.3469 11.9202C13.2109 12.2702 13.0481 12.5194 12.7856 12.7817C12.5231 13.0442 12.2739 13.2067 11.9237 13.3427C11.6597 13.4458 11.2625 13.5677 10.5312 13.6011C9.74063 13.637 9.50313 13.6448 7.50063 13.6448C5.49797 13.6448 5.26062 13.637 4.47 13.6011C3.73875 13.5673 3.34188 13.4452 3.07734 13.3425C2.72734 13.2066 2.47734 13.0441 2.21484 12.7816C1.95234 12.5191 1.78984 12.2697 1.65359 11.9195C1.55094 11.6555 1.42859 11.2586 1.39531 10.5273C1.35938 9.73672 1.35219 9.49922 1.35219 7.49641C1.35219 5.49359 1.35938 5.25734 1.39531 4.46672C1.42875 3.73547 1.55094 3.33859 1.65359 3.07422C1.78953 2.72422 1.95234 2.47422 2.21484 2.21172C2.47734 1.94922 2.72734 1.78672 3.07734 1.65047C3.34172 1.54734 3.73875 1.42547 4.47 1.39187C5.16187 1.36062 5.43 1.35125 6.82781 1.34969V1.35156ZM11.5041 2.59687C11.0072 2.59687 10.6041 2.99953 10.6041 3.49656C10.6041 3.99344 11.0072 4.39656 11.5041 4.39656C12.0009 4.39656 12.4041 3.99344 12.4041 3.49656C12.4041 2.99969 12.0009 2.59656 11.5041 2.59656V2.59687ZM7.50062 3.64844C5.37359 3.64844 3.64906 5.37297 3.64906 7.5C3.64906 9.62703 5.37359 11.3508 7.50062 11.3508C9.62766 11.3508 11.3516 9.62703 11.3516 7.5C11.3516 5.37297 9.6275 3.64844 7.50047 3.64844H7.50062ZM7.50063 5C8.88125 5 10.0006 6.11922 10.0006 7.5C10.0006 8.88062 8.88125 10 7.50063 10C6.11984 10 5.00063 8.88062 5.00063 7.5C5.00063 6.11922 6.11984 5 7.50063 5Z" fill="#E8D8BD"/>
</svg>
