<svg width="17" height="14" viewBox="0 0 17 14" fill="none" xmlns="http://www.w3.org/2000/svg">
<path fill-rule="evenodd" clip-rule="evenodd" d="M16.2912 0.7C15.9002 0.7 15.5829 1.0136 15.5829 1.4V4.0558C14.5643 3.0744 13.7454 2.2841 13.5188 2.0608L13.5082 2.0503C12.8324 1.3825 12.044 0.8652 11.1643 0.5124C10.7421 0.343 10.3001 0.2142 9.85174 0.1281C9.40761 0.0434 8.95287 0 8.49953 0C8.0462 0 7.59145 0.0434 7.14732 0.1281C6.69895 0.2142 6.25695 0.343 5.83478 0.5124C4.95503 0.8652 4.16666 1.3825 3.49091 2.0503C3.43141 2.1084 3.37332 2.1686 3.31666 2.2288C3.00782 2.5557 2.73157 2.9106 2.49357 3.2865C2.30445 3.584 2.13799 3.8969 1.99703 4.2203C1.93187 4.3687 1.87095 4.5199 1.81782 4.6732C1.69174 5.0358 1.88512 5.432 2.25203 5.5601C2.61966 5.6882 3.0227 5.4985 3.15445 5.1359C3.19341 5.026 3.24299 4.9196 3.28266 4.8104C3.53978 4.2091 3.89962 3.6631 4.35295 3.1836C4.39828 3.1346 4.44503 3.087 4.49249 3.0401C5.03366 2.5053 5.66407 2.0916 6.36674 1.8102C7.04603 1.5379 7.76287 1.4 8.49953 1.4C9.2362 1.4 9.95303 1.5379 10.6323 1.8102C11.335 2.0916 11.9654 2.5053 12.5066 3.0401L12.5115 3.045C12.724 3.255 13.477 3.9816 14.4297 4.9H12.0412C11.6502 4.9 11.3329 5.2136 11.3329 5.6C11.3329 5.9864 11.6502 6.3 12.0412 6.3H16.2912C16.6822 6.3 16.9995 5.9864 16.9995 5.6V1.4C16.9995 1.0136 16.6822 0.7 16.2912 0.7Z" fill="#F3BC77"/>
<path fill-rule="evenodd" clip-rule="evenodd" d="M14.7475 8.43985C14.3799 8.31175 13.9768 8.50145 13.8451 8.86405C13.8061 8.97395 13.7565 9.08035 13.7169 9.18955C13.1368 10.5426 12.0098 11.6381 10.6328 12.1897C9.9535 12.462 9.23667 12.5999 8.5 12.5999C7.76333 12.5999 7.0465 12.462 6.36721 12.1897C5.66454 11.9083 5.03413 11.4946 4.49296 10.9598L4.488 10.9549C4.2755 10.7449 3.52254 10.0183 2.56983 9.09995H4.95833C5.34933 9.09995 5.66667 8.78635 5.66667 8.39995C5.66667 8.01355 5.34933 7.69995 4.95833 7.69995H0.708333C0.317333 7.69995 0 8.01355 0 8.39995V12.5999C0 12.9863 0.317333 13.2999 0.708333 13.2999C1.09933 13.2999 1.41667 12.9863 1.41667 12.5999V9.94415C2.43525 10.9255 3.25408 11.7158 3.48075 11.9391L3.49137 11.9496C4.16712 12.6174 4.9555 13.1347 5.83525 13.4875C6.25742 13.6569 6.69942 13.7857 7.14779 13.8718C7.59192 13.9565 8.04667 13.9999 8.5 13.9999C9.41092 13.9999 10.3211 13.8256 11.1648 13.4875C12.0445 13.1347 12.8329 12.6174 13.5086 11.9496C13.5681 11.8915 13.6262 11.8313 13.6829 11.7711C13.9917 11.4442 14.268 11.0893 14.506 10.7134C14.6951 10.4159 14.8615 10.103 15.0025 9.77965C15.0677 9.63125 15.1286 9.48005 15.1817 9.32675C15.3078 8.96415 15.1144 8.56795 14.7475 8.43985Z" fill="#F3BC77"/>
</svg>
