<svg width="449" height="396" viewBox="0 0 449 396" fill="none" xmlns="http://www.w3.org/2000/svg">
<g clip-path="url(#clip0)">
<path d="M317.501 183.237V170.428H357.08V183.237H317.501ZM337.399 248.586V220.145H317.501V208.855H357.08V220.145C357.08 237.296 367.895 248.586 389.09 248.586H395.362V220.145C388.225 220.145 385.413 217.105 385.413 208.855V170.428H395.362V141.987H317.501C303.01 141.987 289.168 154.145 289.168 170.428V248.586H337.399ZM219.526 248.586V220.145H209.577V198.217L224.5 217.757L239.423 196.698V220.145C239.423 237.296 250.237 248.586 271.433 248.586H277.705V220.145C270.568 220.145 267.756 217.105 267.756 208.855V170.428H277.705V141.987H250.886L250.67 142.638L224.716 179.329L204.17 152.408C198.979 145.678 190.111 141.987 177.783 141.987H171.511V170.428C178.432 170.645 181.46 173.467 181.46 181.717V220.145H171.511V248.586H219.526V248.586ZM403.148 389.27C403.148 388.619 402.932 387.967 402.5 387.533C402.067 387.099 401.634 386.448 400.986 386.013C400.337 385.579 399.688 385.145 398.823 384.711C398.174 384.277 397.309 383.625 396.66 382.974C396.011 382.323 395.579 381.671 395.146 380.803C394.713 379.934 394.497 378.849 394.497 377.763C394.497 376.678 394.713 375.592 394.93 374.941C395.362 374.073 395.795 373.421 396.444 372.987C397.093 372.553 397.741 372.119 398.606 371.902C399.472 371.684 400.337 371.467 401.202 371.467C402.283 371.467 403.365 371.684 404.446 371.902C405.527 372.119 406.176 372.336 406.825 372.77L405.527 376.461C405.095 376.244 404.662 376.027 403.797 375.809C403.148 375.592 402.283 375.375 401.418 375.375C400.553 375.375 399.904 375.592 399.472 375.809C399.039 376.244 398.823 376.678 398.823 377.329C398.823 377.98 399.039 378.415 399.472 379.066C399.904 379.5 400.337 379.934 400.986 380.369C401.634 380.803 402.283 381.237 403.148 381.671C403.797 382.105 404.662 382.757 405.311 383.408C405.96 384.059 406.393 384.711 406.825 385.579C407.258 386.448 407.474 387.533 407.474 388.619C407.474 389.704 407.258 390.79 407.041 391.658C406.609 392.527 406.176 393.178 405.527 393.829C404.879 394.48 404.23 394.915 403.148 395.132C402.283 395.349 401.202 395.566 400.12 395.566C398.823 395.566 397.525 395.349 396.444 395.132C395.362 394.915 394.497 394.48 394.065 394.263L395.362 390.355C395.795 390.573 396.444 390.79 397.309 391.224C398.174 391.441 399.039 391.658 399.904 391.658C402.067 392.092 403.148 391.007 403.148 389.27ZM377.627 371.902H389.306V375.809H381.737V381.671H388.658V385.579H381.737V391.658H389.306V395.566H377.411V371.902H377.627ZM367.462 371.902H371.788V395.566H367.462V371.902ZM362.488 375.809H356.864V395.566H352.539V375.809H346.915V371.902H362.271V375.809H362.488ZM338.048 371.902H342.373V395.566H338.048V371.902ZM333.29 375.809H327.666V395.566H323.341V375.809H317.934V371.902H333.29V375.809ZM303.443 383.842L301.929 379.717H301.712L302.145 383.842V395.566H298.252V371.684H301.496L308.201 383.625L309.715 387.75H309.931L309.499 383.842V372.119H313.392V396H310.147L303.443 383.842ZM281.166 371.902H292.845V375.809H285.491V381.671H292.412V385.579H285.491V391.658H293.061V395.566H281.166V371.902ZM269.919 395.349H257.375V371.684H261.7V391.441H269.919V395.349ZM242.668 386.665H246.561L245.263 381.237L244.83 377.546H244.614L243.965 381.237L242.668 386.665ZM247.426 390.138H241.803L240.505 395.566H236.395L243.316 371.684H246.561L253.482 395.566H248.724L247.426 390.138ZM225.365 383.191H232.719V393.612C231.854 394.48 230.988 394.915 229.907 395.349C228.826 395.783 227.744 395.783 226.663 395.783C225.365 395.783 224.067 395.566 222.986 395.132C221.905 394.698 221.04 393.829 220.174 392.961C219.526 391.875 218.877 390.79 218.444 389.053C218.012 387.533 217.795 385.579 217.795 383.408C217.795 381.237 218.012 379.283 218.444 377.763C218.877 376.244 219.526 374.941 220.391 374.073C221.256 372.987 222.121 372.336 223.202 371.902C224.284 371.467 225.365 371.25 226.663 371.25C227.744 371.25 228.826 371.25 229.691 371.467C230.556 371.684 231.205 371.902 231.854 372.119L230.988 375.809C230.556 375.592 230.123 375.375 229.474 375.375C228.826 375.158 228.177 375.158 227.312 375.158C226.447 375.158 225.798 375.375 225.149 375.592C224.5 375.809 224.067 376.461 223.635 377.112C223.202 377.763 222.77 378.632 222.553 379.717C222.337 380.803 222.121 382.105 222.121 383.625C222.121 386.448 222.553 388.619 223.419 389.921C224.284 391.224 225.365 391.875 226.879 391.875C227.312 391.875 227.744 391.875 228.177 391.658C228.609 391.441 229.042 391.224 229.258 391.007V386.23L225.365 385.796V383.191V383.191ZM201.142 371.902H212.821V375.809H205.251V381.671H212.172V385.579H205.251V391.658H212.821V395.566H201.142V371.902ZM196.6 395.349H184.055V371.684H188.381V391.441H196.6V395.349ZM160.481 371.902H172.16V375.809H164.59V381.888H171.511V385.796H164.59V395.349H160.264V371.902H160.481ZM143.178 383.625C143.178 384.711 143.178 386.013 143.395 386.882C143.611 387.967 143.827 388.836 144.043 389.487C144.26 390.138 144.692 390.79 145.341 391.224C145.774 391.658 146.422 391.875 147.071 391.875C148.369 391.875 149.45 391.224 150.099 389.921C150.748 388.619 151.181 386.448 151.181 383.625C151.181 382.54 151.181 381.454 150.964 380.369C150.748 379.283 150.532 378.415 150.316 377.763C150.099 377.112 149.667 376.461 149.018 376.027C148.585 375.592 147.936 375.375 147.071 375.375C144.476 375.158 143.178 377.98 143.178 383.625ZM138.636 383.625C138.636 379.717 139.285 376.678 140.583 374.507C141.881 372.336 144.043 371.467 146.855 371.467C148.369 371.467 149.667 371.684 150.532 372.336C151.613 372.987 152.478 373.638 153.127 374.724C153.776 375.809 154.209 377.112 154.641 378.632C154.857 380.152 155.074 381.888 155.074 383.625C155.074 387.533 154.425 390.573 152.911 392.744C151.613 394.915 149.45 395.783 146.639 395.783C145.125 395.783 143.827 395.566 142.962 394.915C141.881 394.263 141.015 393.612 140.367 392.527C139.718 391.441 139.285 390.138 138.853 388.619C138.853 387.099 138.636 385.579 138.636 383.625ZM116.792 383.842L115.278 379.717H115.062L115.494 383.842V395.566H111.601V371.684H114.845L121.55 383.625L123.064 387.75H123.28L122.848 383.842V372.119H126.741V396H123.497L116.792 383.842ZM94.0824 383.625C94.0824 384.711 94.0824 386.013 94.2987 386.882C94.5149 387.967 94.7312 388.836 94.9475 389.487C95.1638 390.138 95.5963 390.79 96.2452 391.224C96.6777 391.658 97.3266 391.875 97.9754 391.875C99.2731 391.875 100.355 391.224 101.003 389.921C101.652 388.619 102.085 386.448 102.085 383.625C102.085 382.54 102.085 381.454 101.868 380.369C101.652 379.283 101.436 378.415 101.22 377.763C101.003 377.112 100.571 376.461 99.922 376.027C99.4894 375.592 98.8406 375.375 97.9754 375.375C95.3801 375.158 94.0824 377.98 94.0824 383.625ZM89.7567 383.625C89.7567 379.717 90.4056 376.678 91.7033 374.507C93.001 372.336 95.1638 371.467 97.9754 371.467C99.4894 371.467 100.787 371.684 101.652 372.336C102.734 372.987 103.599 373.638 104.248 374.724C104.896 375.809 105.329 377.112 105.762 378.632C105.978 380.152 106.194 381.888 106.194 383.625C106.194 387.533 105.545 390.573 104.031 392.744C102.734 394.915 100.571 395.783 97.7592 395.783C96.2452 395.783 94.9475 395.566 94.0824 394.915C93.001 394.263 92.1358 393.612 91.487 392.527C90.8382 391.441 90.4056 390.138 89.973 388.619C89.973 387.099 89.7567 385.579 89.7567 383.625ZM80.0241 371.902H84.3497V395.566H80.0241V371.902ZM64.0193 383.842L62.5053 379.717H62.289L62.7216 383.842V395.566H58.8285V371.684H62.0727L68.7775 383.625L70.2914 387.75H70.5077L70.0752 383.842V372.119H73.9682V396H70.724L64.0193 383.842ZM49.0959 371.902H52.9889V387.316C52.9889 390.355 52.3401 392.527 51.0424 394.046C49.7447 395.349 48.0145 396 45.8516 396C43.2563 396 41.3097 395.349 40.2283 394.046C38.9306 392.744 38.4981 390.573 38.4981 387.967V372.119H42.8237V387.316C42.8237 389.053 43.04 390.355 43.4725 391.224C43.9051 391.875 44.7702 392.309 45.8516 392.309C46.933 392.309 47.7982 391.875 48.2307 391.224C48.6633 390.355 48.8796 389.27 48.8796 387.533V371.902H49.0959ZM441.863 342.158H448.784V346.066H441.863V342.158ZM421.965 342.158L420.451 338.033H420.235L420.667 342.158V353.882H416.774V330H420.018L426.723 341.941L428.237 346.066H428.453L428.021 342.158V330.434H431.914V354.316H428.67L421.965 342.158ZM402.283 344.98H406.176L404.879 339.553L404.446 335.862H404.23L403.581 339.553L402.283 344.98ZM406.825 348.237H401.202L399.904 353.665H395.795L402.716 329.783H405.96L412.881 353.665H408.339L406.825 348.237ZM395.146 334.125H389.523V353.882H385.197V334.125H379.574V330.217H394.93V334.125H395.146ZM371.788 347.586C371.788 346.934 371.571 346.283 371.139 345.849C370.706 345.415 370.274 344.763 369.625 344.329C368.976 343.895 368.327 343.461 367.462 343.027C366.813 342.592 365.948 341.941 365.299 341.29C364.65 340.638 364.218 339.987 363.785 339.119C363.353 338.25 363.136 337.165 363.136 336.079C363.136 334.994 363.353 333.908 363.569 333.257C364.001 332.388 364.434 331.737 365.083 331.303C365.732 330.869 366.381 330.434 367.246 330.217C368.111 330 368.976 329.783 369.841 329.783C370.922 329.783 372.004 330 373.085 330.217C374.167 330.434 374.816 330.652 375.464 331.086L374.167 334.777C373.734 334.559 373.302 334.342 372.436 334.125C371.788 333.908 370.922 333.691 370.057 333.691C369.192 333.691 368.543 333.908 368.111 334.125C367.678 334.559 367.462 334.994 367.462 335.645C367.462 336.296 367.678 336.73 368.111 337.382C368.543 337.816 368.976 338.25 369.625 338.684C370.274 339.119 370.922 339.553 371.788 339.987C372.436 340.421 373.302 341.073 373.95 341.724C374.599 342.375 375.032 343.027 375.464 343.895C375.897 344.763 376.113 345.849 376.113 346.934C376.113 348.02 375.897 349.105 375.681 349.974C375.248 350.842 374.816 351.494 374.167 352.145C373.518 352.796 372.653 353.23 371.788 353.448C370.922 353.665 369.841 353.882 368.76 353.882C367.462 353.882 366.164 353.665 365.083 353.448C364.001 353.23 363.136 352.796 362.704 352.579L364.001 348.671C364.434 348.888 365.083 349.105 365.948 349.54C366.813 349.757 367.678 349.974 368.543 349.974C370.706 350.191 371.788 349.323 371.788 347.586ZM353.62 343.678H347.132V353.665H342.806V330H347.132V339.77H353.62V330H357.946V353.665H353.62V343.678ZM327.882 343.678H327.017V353.882H322.692V330.217H327.017V340.638L327.882 340.204L332.857 330.217H337.615L332.208 340.204L330.694 341.507L332.208 342.809L338.48 353.882H333.29L327.882 343.678ZM308.201 344.98H312.094L310.796 339.553L310.364 335.862H310.147L309.499 339.553L308.201 344.98ZM312.743 348.237H307.119L305.822 353.665H301.712L308.633 329.783H311.878L318.799 353.665H314.257L312.743 348.237ZM285.491 349.757L293.277 335.428L294.791 334.125H285.491V330.217H299.117V334.125L291.115 348.671L289.817 349.974H299.117V353.882H285.491V349.757ZM272.298 344.98H276.191L274.894 339.553L274.461 335.862H274.245L273.596 339.553L272.298 344.98ZM277.056 348.237H271.433L270.135 353.665H266.026L272.947 329.783H276.191L283.112 353.665H278.57L277.056 348.237ZM253.265 343.678H252.4V353.882H248.075V330.217H252.4V340.638L253.265 340.204L258.24 330.217H262.998L257.591 340.204L256.077 341.507L257.591 342.809L263.863 353.882H258.672L253.265 343.678ZM224.5 330.217H236.179V334.125H228.609V340.204H235.53V344.112H228.609V353.665H224.284V330.217H224.5ZM207.198 341.941C207.198 343.027 207.198 344.329 207.414 345.198C207.63 346.283 207.846 347.152 208.063 347.803C208.279 348.454 208.711 349.105 209.36 349.54C209.793 349.974 210.442 350.191 211.091 350.191C212.388 350.191 213.47 349.54 214.119 348.237C214.767 346.934 215.2 344.763 215.2 341.941C215.2 340.855 215.2 339.77 214.984 338.684C214.767 337.599 214.551 336.73 214.335 336.079C214.119 335.428 213.686 334.777 213.037 334.342C212.605 333.908 211.956 333.691 211.091 333.691C208.495 333.474 207.198 336.296 207.198 341.941ZM202.656 341.941C202.656 338.033 203.304 334.994 204.602 332.823C205.9 330.652 208.063 329.783 210.874 329.783C212.388 329.783 213.686 330 214.551 330.652C215.632 331.303 216.498 331.954 217.146 333.04C217.795 334.125 218.228 335.428 218.66 336.948C218.877 338.467 219.093 340.204 219.093 341.941C219.093 345.849 218.444 348.888 216.93 351.059C215.632 353.23 213.47 354.099 210.658 354.099C209.144 354.099 207.846 353.882 206.981 353.23C205.9 352.579 205.035 351.928 204.386 350.842C203.737 349.757 203.304 348.454 202.872 346.934C202.872 345.415 202.656 343.678 202.656 341.941ZM187.083 347.586C187.083 346.934 186.867 346.283 186.434 345.849C186.002 345.415 185.569 344.763 184.921 344.329C184.272 343.895 183.623 343.461 182.758 343.027C182.109 342.592 181.244 341.941 180.595 341.29C179.946 340.638 179.514 339.987 179.081 339.119C178.648 338.25 178.432 337.165 178.432 336.079C178.432 334.994 178.648 333.908 178.865 333.257C179.297 332.388 179.73 331.737 180.379 331.303C181.027 330.869 181.676 330.434 182.541 330.217C183.407 330 184.272 329.783 185.137 329.783C186.218 329.783 187.3 330 188.381 330.217C189.462 330.434 190.111 330.652 190.76 331.086L189.462 334.777C189.03 334.559 188.597 334.342 187.732 334.125C187.083 333.908 186.218 333.691 185.353 333.691C184.488 333.691 183.839 333.908 183.407 334.125C182.974 334.559 182.758 334.994 182.758 335.645C182.758 336.296 182.974 336.73 183.407 337.382C183.839 337.816 184.272 338.25 184.921 338.684C185.569 339.119 186.218 339.553 187.083 339.987C187.732 340.421 188.597 341.073 189.246 341.724C189.895 342.375 190.328 343.027 190.76 343.895C191.193 344.763 191.409 345.849 191.409 346.934C191.409 348.02 191.193 349.105 190.976 349.974C190.544 350.842 190.111 351.494 189.462 352.145C188.814 352.796 188.165 353.23 187.083 353.448C186.218 353.665 185.137 353.882 184.055 353.882C182.758 353.882 181.46 353.665 180.379 353.448C179.297 353.23 178.432 352.796 178 352.579L179.297 348.671C179.73 348.888 180.379 349.105 181.244 349.54C182.109 349.757 182.974 349.974 183.839 349.974C186.002 350.191 187.083 349.323 187.083 347.586ZM163.292 342.158L161.778 338.033H161.562L161.995 342.158V353.882H158.102V330H161.346L168.051 341.941L169.565 346.066H169.781L169.348 342.158V330.434H173.241V354.316H169.997L163.292 342.158ZM140.799 341.941C140.799 343.027 140.799 344.329 141.015 345.198C141.232 346.283 141.448 347.152 141.664 347.803C141.881 348.454 142.313 349.105 142.962 349.54C143.395 349.974 144.043 350.191 144.692 350.191C145.99 350.191 147.071 349.54 147.72 348.237C148.369 346.934 148.802 344.763 148.802 341.941C148.802 340.855 148.802 339.77 148.585 338.684C148.369 337.599 148.153 336.73 147.936 336.079C147.72 335.428 147.288 334.777 146.639 334.342C146.206 333.908 145.557 333.691 144.692 333.691C142.097 333.474 140.799 336.296 140.799 341.941ZM136.257 341.941C136.257 338.033 136.906 334.994 138.204 332.823C139.501 330.652 141.664 329.783 144.476 329.783C145.99 329.783 147.288 330 148.153 330.652C149.234 331.303 150.099 331.954 150.748 333.04C151.397 334.125 151.829 335.428 152.262 336.948C152.478 338.467 152.695 340.204 152.695 341.941C152.695 345.849 152.046 348.888 150.532 351.059C149.234 353.23 147.071 354.099 144.26 354.099C142.746 354.099 141.448 353.882 140.583 353.23C139.501 352.579 138.636 351.928 137.987 350.842C137.339 349.757 136.906 348.454 136.474 346.934C136.474 345.415 136.257 343.678 136.257 341.941ZM126.525 330.217H130.85V353.882H126.525V330.217ZM121.766 334.125H116.143V353.882H111.817V334.125H106.194V330.217H121.55V334.125H121.766ZM95.1638 344.98H99.0568L97.7592 339.553L97.3266 335.862H97.1103L96.4615 339.553L95.1638 344.98ZM99.7057 348.237H94.0824L92.7847 353.665H88.6753L95.5963 329.783H98.8406L105.762 353.665H101.22L99.7057 348.237ZM75.9147 341.073H77.4287C78.5101 341.073 79.3752 340.855 79.8078 340.204C80.2404 339.553 80.6729 338.467 80.6729 337.165C80.6729 336.079 80.4567 335.428 80.0241 334.777C79.5915 334.125 78.9427 333.908 77.8613 333.908C77.4287 333.908 77.2124 333.908 76.7799 333.908C76.3473 333.908 76.131 333.908 75.9147 334.125V341.073V341.073ZM71.8054 330.434C72.6705 330.217 73.7519 330 74.8333 330C75.9147 330 76.7799 329.783 77.645 329.783C78.5101 329.783 79.5915 329.783 80.4567 330C81.3218 330.217 82.1869 330.434 82.8357 331.086C83.4846 331.52 84.1334 332.171 84.566 333.04C84.9986 333.908 85.2148 334.994 85.2148 336.296C85.2148 338.25 84.7823 339.77 84.1334 341.073C83.4846 342.375 82.4032 343.027 81.3218 343.461L82.6195 344.546L86.9451 353.665H81.9706L77.8613 344.329L76.131 343.895V353.665H71.8054V330.434ZM54.5029 330.217H66.1821V334.125H58.6122V339.987H65.5332V343.895H58.6122V349.974H66.1821V353.882H54.2866V330.217H54.5029ZM40.012 333.691C39.5795 333.691 39.3632 333.691 38.9306 333.691C38.4981 333.691 38.2818 333.691 38.0655 333.691V349.974C38.0655 349.974 38.2818 349.974 38.4981 349.974C38.7144 349.974 38.9306 349.974 38.9306 349.974C39.1469 349.974 39.3632 349.974 39.3632 349.974C39.5795 349.974 39.5795 349.974 39.7958 349.974C40.8772 349.974 41.526 349.757 42.1749 349.323C42.8237 348.888 43.2563 348.237 43.6888 347.369C44.1214 346.5 44.3377 345.632 44.554 344.546C44.7702 343.461 44.7702 342.375 44.7702 341.29C44.7702 340.204 44.7702 339.336 44.554 338.25C44.3377 337.382 44.1214 336.513 43.9051 335.645C43.4725 334.994 43.04 334.342 42.3911 333.908C41.9586 333.908 41.0935 333.691 40.012 333.691ZM33.9562 330.217C34.3887 330.217 34.8213 330 35.2539 330C35.6864 330 36.3353 330 36.7678 330C37.2004 330 37.8492 330 38.2818 330C38.7144 330 39.1469 330 39.5795 330C41.526 330 43.04 330.217 44.3377 330.869C45.6354 331.52 46.5005 332.171 47.3656 333.257C48.0145 334.342 48.6633 335.645 48.8796 336.948C49.0959 338.467 49.3121 339.987 49.3121 341.941C49.3121 343.678 49.0959 345.198 48.8796 346.717C48.6633 348.237 48.0145 349.54 47.3656 350.625C46.5005 351.711 45.6354 352.579 44.3377 353.448C43.04 354.099 41.3097 354.533 39.3632 354.533C39.1469 354.533 38.7144 354.533 38.2818 354.533C37.8492 354.533 37.2004 354.533 36.7678 354.533C36.3353 354.533 35.6864 354.533 35.2539 354.533C34.8213 354.533 34.3887 354.533 34.1724 354.316V330.217H33.9562ZM16.8699 330.217H28.5491V334.125H20.9793V339.987H27.9003V343.895H20.9793V349.974H28.5491V353.882H16.8699V330.217ZM0 330.217H11.6792V334.125H4.32563V340.204H11.2466V344.112H4.32563V353.665H0V330.217ZM425.425 303.079H429.318L428.021 297.652L427.588 293.961H427.372L426.723 297.652L425.425 303.079ZM430.184 306.553H424.56L423.263 311.98H419.153L426.074 288.099H429.318L436.239 311.98H431.698L430.184 306.553ZM410.718 299.823L411.151 295.263H410.935L409.637 299.388L405.744 307.638H404.446L400.337 299.388L399.039 295.263H398.823L399.472 299.823V311.98H395.579V288.316H399.688L404.662 298.52L405.527 301.559H405.744L406.609 298.52L411.151 288.316H415.044V311.98H410.718V299.823V299.823ZM385.63 299.823L386.062 295.263H385.846L384.548 299.388L380.655 307.638H379.141L375.032 299.388L374.167 295.263H373.95L374.599 299.823V311.98H370.706V288.316H374.816L379.79 298.52L380.655 301.559H380.871L381.737 298.52L386.278 288.316H390.171V311.98H385.846V299.823H385.63ZM349.294 292.007C348.862 292.007 348.645 292.007 348.213 292.007C347.78 292.007 347.564 292.007 347.348 292.007V308.29C347.348 308.29 347.564 308.29 347.78 308.29C347.997 308.29 348.213 308.29 348.213 308.29C348.429 308.29 348.645 308.29 348.645 308.29C348.862 308.29 348.862 308.29 349.078 308.29C350.159 308.29 350.808 308.073 351.457 307.638C352.106 307.204 352.539 306.553 352.971 305.684C353.404 304.816 353.62 303.948 353.836 302.862C354.053 301.777 354.053 300.691 354.053 299.605C354.053 298.52 354.053 297.652 353.836 296.566C353.62 295.698 353.404 294.829 353.187 293.961C352.755 293.309 352.322 292.658 351.673 292.224C351.025 292.224 350.376 292.007 349.294 292.007ZM343.022 288.316C343.455 288.316 343.887 288.099 344.32 288.099C344.752 288.099 345.401 288.099 345.834 288.099C346.266 288.099 346.915 288.099 347.348 288.099C347.78 288.099 348.213 288.099 348.645 288.099C350.592 288.099 352.106 288.316 353.404 288.967C354.701 289.619 355.566 290.27 356.432 291.355C357.08 292.441 357.729 293.744 357.946 295.046C358.162 296.566 358.378 298.086 358.378 300.04C358.378 301.777 358.162 303.296 357.946 304.816C357.729 306.336 357.08 307.638 356.432 308.724C355.566 309.809 354.701 310.678 353.404 311.546C352.106 312.198 350.376 312.632 348.429 312.632C348.213 312.632 347.78 312.632 347.348 312.632C346.915 312.632 346.266 312.632 345.834 312.632C345.401 312.632 344.752 312.632 344.32 312.632C343.887 312.632 343.455 312.632 343.238 312.415V288.316H343.022ZM325.936 288.316H337.615V292.224H330.045V298.086H336.966V301.994H330.045V308.073H337.615V311.98H325.72V288.316H325.936ZM321.394 292.224H315.771V311.98H311.445V292.224H305.822V288.316H321.178V292.224H321.394ZM296.954 288.316H301.28V311.98H296.954V288.316ZM280.949 300.474L279.435 296.349H279.219L279.652 300.474V312.198H275.759V288.316H279.003L285.708 300.257L287.222 304.382H287.438L287.005 300.474V288.75H290.898V312.632H287.654L280.949 300.474ZM266.242 288.316H270.135V303.73C270.135 306.77 269.487 308.941 268.189 310.461C266.891 311.763 265.161 312.415 262.998 312.415C260.403 312.415 258.456 311.763 257.375 310.461C256.077 309.158 255.645 306.987 255.645 304.382V288.533H259.97V303.73C259.97 305.467 260.186 306.77 260.619 307.638C261.052 308.29 261.917 308.724 262.998 308.724C264.079 308.724 264.945 308.29 265.377 307.638C265.81 306.77 266.026 305.684 266.026 303.948V288.316H266.242ZM232.07 288.316H243.749V292.224H236.179V298.303H243.1V302.211H236.179V311.763H231.854V288.316H232.07ZM214.767 300.257C214.767 301.342 214.767 302.645 214.984 303.513C215.2 304.599 215.416 305.467 215.632 306.119C215.849 306.77 216.281 307.421 216.93 307.855C217.363 308.29 218.012 308.507 218.66 308.507C219.958 308.507 221.04 307.855 221.688 306.553C222.337 305.25 222.77 303.079 222.77 300.257C222.77 299.171 222.77 298.086 222.553 297C222.337 295.915 222.121 295.046 221.905 294.395C221.688 293.744 221.256 293.092 220.607 292.658C220.174 292.224 219.526 292.007 218.66 292.007C216.065 291.79 214.767 294.612 214.767 300.257ZM210.442 300.257C210.442 296.349 211.091 293.309 212.388 291.138C213.686 288.967 215.849 288.099 218.66 288.099C220.174 288.099 221.472 288.316 222.337 288.967C223.419 289.619 224.284 290.27 224.933 291.355C225.581 292.441 226.014 293.744 226.447 295.263C226.879 296.783 226.879 298.52 226.879 300.257C226.879 304.165 226.23 307.204 224.716 309.375C223.419 311.546 221.256 312.415 218.444 312.415C216.93 312.415 215.632 312.198 214.767 311.546C213.686 310.895 212.821 310.244 212.172 309.158C211.523 308.073 211.091 306.77 210.658 305.25C210.442 303.73 210.442 301.994 210.442 300.257ZM188.381 300.474L186.867 296.349H186.651L187.083 300.474V312.198H183.19V288.316H186.434L193.139 300.257L194.653 304.382H194.869L194.437 300.474V288.75H198.33V312.632H195.086L188.381 300.474ZM165.888 300.257C165.888 301.342 165.888 302.645 166.104 303.513C166.32 304.599 166.537 305.467 166.753 306.119C166.969 306.77 167.402 307.421 168.051 307.855C168.483 308.29 169.132 308.507 169.781 308.507C171.079 308.507 172.16 307.855 172.809 306.553C173.458 305.25 173.89 303.079 173.89 300.257C173.89 299.171 173.89 298.086 173.674 297C173.458 295.915 173.241 295.046 173.025 294.395C172.809 293.744 172.376 293.092 171.727 292.658C171.295 292.224 170.646 292.007 169.781 292.007C167.185 291.79 165.888 294.612 165.888 300.257ZM161.346 300.257C161.346 296.349 161.995 293.309 163.292 291.138C164.59 288.967 166.753 288.099 169.565 288.099C171.079 288.099 172.376 288.316 173.241 288.967C174.323 289.619 175.188 290.27 175.837 291.355C176.486 292.441 176.918 293.744 177.351 295.263C177.567 296.783 177.783 298.52 177.783 300.257C177.783 304.165 177.134 307.204 175.62 309.375C174.323 311.546 172.16 312.415 169.348 312.415C167.834 312.415 166.537 312.198 165.671 311.546C164.59 310.895 163.725 310.244 163.076 309.158C162.427 308.073 161.995 306.77 161.562 305.25C161.562 303.73 161.346 301.994 161.346 300.257ZM151.613 288.316H155.939V311.98H151.613V288.316ZM146.855 292.224H141.232V311.98H136.906V292.224H131.283V288.316H146.639V292.224H146.855ZM120.252 303.079H124.145L122.848 297.652L122.415 293.961H122.199L121.55 297.652L120.252 303.079ZM124.794 306.553H119.171L117.873 311.98H113.764L120.685 288.099H123.929L130.85 311.98H126.308L124.794 306.553ZM104.896 288.316H109.222V311.98H104.896V288.316ZM99.922 311.112C99.2731 311.546 98.6243 311.98 97.5429 312.198C96.4615 312.415 95.5963 312.632 94.7312 312.632C93.4335 312.632 92.3521 312.415 91.2707 311.98C90.1893 311.546 89.3242 310.895 88.4591 309.809C87.5939 308.941 87.1614 307.638 86.5125 305.902C86.08 304.382 85.8637 302.428 85.8637 300.04C85.8637 297.652 86.08 295.698 86.5125 294.178C86.9451 292.658 87.5939 291.355 88.4591 290.487C89.3242 289.619 90.1893 288.967 91.2707 288.533C92.3521 288.099 93.4335 287.882 94.5149 287.882C95.5963 287.882 96.6777 287.882 97.3266 288.099C98.1917 288.316 98.8406 288.533 99.2731 288.75L98.408 292.441C97.9754 292.224 97.5429 292.007 96.894 292.007C96.2452 291.79 95.5963 291.79 94.9475 291.79C93.4335 291.79 92.1358 292.441 91.487 293.744C90.6219 295.046 90.1893 297.217 90.1893 300.04C90.1893 301.342 90.1893 302.428 90.4056 303.513C90.6219 304.599 90.8382 305.467 91.2707 306.119C91.7033 306.77 92.1358 307.421 92.7847 307.855C93.4335 308.29 94.2987 308.507 95.1638 308.507C96.0289 308.507 96.6778 308.507 97.1103 308.29C97.7592 308.073 98.1917 307.855 98.6243 307.638L99.922 311.112ZM69.21 300.257C69.21 301.342 69.21 302.645 69.4263 303.513C69.6426 304.599 69.8589 305.467 70.0752 306.119C70.2914 306.77 70.724 307.421 71.3728 307.855C71.8054 308.29 72.4542 308.507 73.1031 308.507C74.4008 308.507 75.4822 307.855 76.131 306.553C76.7799 305.25 77.2124 303.079 77.2124 300.257C77.2124 299.171 77.2124 298.086 76.9961 297C76.7799 295.915 76.5636 295.046 76.3473 294.395C76.131 293.744 75.6985 293.092 75.0496 292.658C74.6171 292.224 73.9682 292.007 73.1031 292.007C70.5077 291.79 69.21 294.612 69.21 300.257ZM64.6681 300.257C64.6681 296.349 65.317 293.309 66.6146 291.138C67.9123 288.967 70.0751 288.099 72.8868 288.099C74.4008 288.099 75.6985 288.316 76.5636 288.967C77.645 289.619 78.5101 290.27 79.159 291.355C79.8078 292.441 80.2404 293.744 80.6729 295.263C81.1055 296.783 81.1055 298.52 81.1055 300.257C81.1055 304.165 80.4567 307.204 78.9427 309.375C77.645 311.546 75.4822 312.415 72.6705 312.415C71.1566 312.415 69.8589 312.198 68.9937 311.546C67.9123 310.895 67.0472 310.244 66.3984 309.158C65.7495 308.073 65.317 306.77 64.8844 305.25C64.8844 303.73 64.6681 301.994 64.6681 300.257ZM56.0169 305.902C56.0169 305.25 55.8006 304.599 55.368 304.165C54.9355 303.73 54.5029 303.079 53.854 302.645C53.2052 302.211 52.5564 301.777 51.6912 301.342C51.0424 300.908 50.1773 300.257 49.5284 299.605C48.8796 298.954 48.447 298.303 48.0145 297.434C47.5819 296.566 47.3656 295.48 47.3656 294.395C47.3656 293.309 47.5819 292.224 47.7982 291.573C48.2307 290.704 48.6633 290.053 49.3121 289.619C49.961 289.184 50.6098 288.75 51.475 288.533C52.3401 288.316 53.2052 288.099 54.0703 288.099C55.1517 288.099 56.2331 288.316 57.3145 288.533C58.396 288.75 59.0448 288.967 59.6936 289.402L58.396 293.092C57.9634 292.875 57.5308 292.658 56.6657 292.441C56.0169 292.224 55.1517 292.007 54.2866 292.007C53.4215 292.007 52.7726 292.224 52.3401 292.441C51.9075 292.875 51.6912 293.309 51.6912 293.961C51.6912 294.612 51.9075 295.046 52.3401 295.698C52.7726 296.132 53.2052 296.566 53.854 297C54.5029 297.434 55.1517 297.869 56.0169 298.303C56.6657 298.737 57.5308 299.388 58.1797 300.04C58.8285 300.691 59.2611 301.342 59.6936 302.211C60.1262 303.079 60.3425 304.165 60.3425 305.25C60.3425 306.336 60.1262 307.421 59.9099 308.29C59.4774 309.158 59.0448 309.809 58.396 310.461C57.7471 311.112 56.882 311.546 56.0169 311.763C55.1517 311.98 54.0703 312.198 52.9889 312.198C51.6912 312.198 50.3935 311.98 49.3121 311.763C48.2307 311.546 47.3656 311.112 46.933 310.895L48.2307 306.987C48.6633 307.204 49.3121 307.421 50.1773 307.855C51.0424 308.073 51.9075 308.29 52.7726 308.29C54.9355 308.507 56.0169 307.638 56.0169 305.902ZM38.7144 305.902C38.7144 305.25 38.4981 304.599 38.0655 304.165C37.633 303.73 37.2004 303.079 36.5515 302.645C35.9027 302.211 35.2539 301.777 34.3887 301.342C33.7399 300.908 32.8748 300.257 32.2259 299.605C31.5771 298.954 31.1445 298.303 30.7119 297.434C30.2794 296.566 30.0631 295.48 30.0631 294.395C30.0631 293.309 30.2794 292.224 30.4957 291.573C30.9282 290.704 31.3608 290.053 32.0096 289.619C32.6585 289.184 33.3073 288.75 34.1724 288.533C35.0376 288.316 35.9027 288.099 36.7678 288.099C37.8492 288.099 38.9306 288.316 40.012 288.533C41.0935 288.75 41.7423 288.967 42.3911 289.402L41.0935 293.092C40.6609 292.875 40.2283 292.658 39.3632 292.441C38.7144 292.224 37.8492 292.007 36.9841 292.007C36.119 292.007 35.4701 292.224 35.0376 292.441C34.605 292.875 34.3887 293.309 34.3887 293.961C34.3887 294.612 34.605 295.046 35.0376 295.698C35.4701 296.132 35.9027 296.566 36.5515 297C37.2004 297.434 37.8492 297.869 38.7144 298.303C39.3632 298.737 40.2283 299.388 40.8772 300.04C41.526 300.691 41.9586 301.342 42.3911 302.211C42.8237 303.079 43.04 304.165 43.04 305.25C43.04 306.336 42.8237 307.421 42.6074 308.29C42.1749 309.158 41.7423 309.809 41.0935 310.461C40.4446 311.112 39.5795 311.546 38.7144 311.763C37.8492 311.98 36.7678 312.198 35.6864 312.198C34.3887 312.198 33.091 311.98 32.0096 311.763C30.9282 311.546 30.0631 311.112 29.6305 310.895L30.9282 306.987C31.3608 307.204 32.0096 307.421 32.8748 307.855C33.7399 308.073 34.605 308.29 35.4701 308.29C37.6329 308.507 38.7144 307.638 38.7144 305.902ZM15.7885 303.079H19.6816L18.3839 297.652L17.9513 293.961H17.7351L17.0862 297.652L15.7885 303.079ZM20.3304 306.553H14.9234L13.6257 311.98H9.3001L16.2211 288.099H19.4653L26.3863 311.98H21.8444L20.3304 306.553ZM101.652 248.586V220.145H91.7033V198.217L106.627 217.757L121.55 196.698V220.145C121.55 237.296 132.364 248.586 153.56 248.586H159.832V220.145C152.695 220.145 149.883 217.105 149.883 208.855V170.428H159.832V141.987H132.797L132.58 142.638L106.627 179.329L86.08 152.408C80.8892 145.678 72.0217 141.987 59.6936 141.987H53.4215V170.428C60.3425 170.645 63.3704 173.467 63.3704 181.717V220.145H53.4215V248.586H101.652V248.586Z" fill="white"/>
<path fill-rule="evenodd" clip-rule="evenodd" d="M383.467 111.809C287.87 105.079 317.934 -32.7829 40.6609 7.38162C210.225 12.8093 253.698 159.79 383.467 111.809Z" fill="#D24A43"/>
<path fill-rule="evenodd" clip-rule="evenodd" d="M221.04 82.717C173.025 85.7565 178.865 15.1973 43.689 53.6249C128.255 45.1578 159.616 115.283 221.04 82.717ZM359.027 75.5525C325.72 67.7367 344.104 20.6249 243.749 19.3223C303.227 30.6117 310.364 85.1052 359.027 75.5525Z" fill="#DD7E55"/>
</g>
<defs>
<clipPath id="clip0">
<rect width="449" height="396" fill="white"/>
</clipPath>
</defs>
</svg>
