<svg width="143" height="126" viewBox="0 0 143 126" fill="none" xmlns="http://www.w3.org/2000/svg">
<g clip-path="url(#clip0)">
<path d="M101.119 58.3027V54.2271H113.725V58.3027H101.119ZM107.457 79.0955V70.0462H101.119V66.454H113.725V70.0462C113.725 75.5034 117.169 79.0955 123.92 79.0955H125.917V70.0462C123.644 70.0462 122.749 69.079 122.749 66.454V54.2271H125.917V45.1777H101.119C96.5043 45.1777 92.0958 49.0462 92.0958 54.2271V79.0955H107.457ZM69.9157 79.0955V70.0462H66.7471V63.0692L71.5 69.2863L76.2529 62.5856V70.0462C76.2529 75.5034 79.697 79.0955 86.4475 79.0955H88.4451V70.0462C86.172 70.0462 85.2765 69.079 85.2765 66.454V54.2271H88.4451V45.1777H79.9037L79.8348 45.385L71.5689 57.0593L65.025 48.4935C63.3719 46.3521 60.5477 45.1777 56.6214 45.1777H54.6238V54.2271C56.828 54.2962 57.7924 55.1942 57.7924 57.8192V70.0462H54.6238V79.0955H69.9157ZM128.397 123.859C128.397 123.651 128.328 123.444 128.19 123.306C128.052 123.168 127.915 122.961 127.708 122.822C127.501 122.684 127.295 122.546 127.019 122.408C126.813 122.27 126.537 122.063 126.33 121.855C126.124 121.648 125.986 121.441 125.848 121.165C125.71 120.888 125.642 120.543 125.642 120.197C125.642 119.852 125.71 119.507 125.779 119.299C125.917 119.023 126.055 118.816 126.262 118.678C126.468 118.54 126.675 118.401 126.95 118.332C127.226 118.263 127.501 118.194 127.777 118.194C128.121 118.194 128.466 118.263 128.81 118.332C129.155 118.401 129.361 118.47 129.568 118.609L129.155 119.783C129.017 119.714 128.879 119.645 128.604 119.576C128.397 119.507 128.121 119.438 127.846 119.438C127.57 119.438 127.364 119.507 127.226 119.576C127.088 119.714 127.019 119.852 127.019 120.059C127.019 120.267 127.088 120.405 127.226 120.612C127.364 120.75 127.501 120.888 127.708 121.026C127.915 121.165 128.121 121.303 128.397 121.441C128.604 121.579 128.879 121.786 129.086 121.994C129.292 122.201 129.43 122.408 129.568 122.684C129.706 122.961 129.775 123.306 129.775 123.651C129.775 123.997 129.706 124.342 129.637 124.619C129.499 124.895 129.361 125.102 129.155 125.309C128.948 125.517 128.741 125.655 128.397 125.724C128.121 125.793 127.777 125.862 127.433 125.862C127.019 125.862 126.606 125.793 126.262 125.724C125.917 125.655 125.642 125.517 125.504 125.447L125.917 124.204C126.055 124.273 126.262 124.342 126.537 124.48C126.813 124.549 127.088 124.619 127.364 124.619C128.052 124.757 128.397 124.411 128.397 123.859ZM120.269 118.332H123.988V119.576H121.578V121.441H123.782V122.684H121.578V124.619H123.988V125.862H120.2V118.332H120.269ZM117.031 118.332H118.409V125.862H117.031V118.332ZM115.447 119.576H113.656V125.862H112.278V119.576H110.487V118.332H115.378V119.576H115.447ZM107.663 118.332H109.041V125.862H107.663V118.332ZM106.148 119.576H104.357V125.862H102.979V119.576H101.257V118.332H106.148V119.576ZM96.6421 122.132L96.1599 120.819H96.091L96.2288 122.132V125.862H94.9889V118.263H96.0221L98.1575 122.063L98.6397 123.375H98.7086L98.5708 122.132V118.401H99.8107V126H98.7774L96.6421 122.132ZM89.5472 118.332H93.2668V119.576H90.9248V121.441H93.1291V122.684H90.9248V124.619H93.3357V125.862H89.5472V118.332ZM85.9653 125.793H81.9701V118.263H83.3478V124.549H85.9653V125.793ZM77.2861 123.03H78.526L78.1127 121.303L77.9749 120.128H77.9061L77.6994 121.303L77.2861 123.03ZM78.8015 124.135H77.0106L76.5973 125.862H75.2885L77.4928 118.263H78.526L80.7302 125.862H79.2148L78.8015 124.135ZM71.7755 121.924H74.1175V125.24C73.842 125.517 73.5665 125.655 73.2221 125.793C72.8776 125.931 72.5332 125.931 72.1888 125.931C71.7755 125.931 71.3622 125.862 71.0178 125.724C70.6734 125.586 70.3979 125.309 70.1223 125.033C69.9157 124.688 69.709 124.342 69.5713 123.79C69.4335 123.306 69.3646 122.684 69.3646 121.994C69.3646 121.303 69.4335 120.681 69.5713 120.197C69.709 119.714 69.9157 119.299 70.1912 119.023C70.4668 118.678 70.7423 118.47 71.0867 118.332C71.4311 118.194 71.7755 118.125 72.1888 118.125C72.5332 118.125 72.8776 118.125 73.1532 118.194C73.4287 118.263 73.6353 118.332 73.842 118.401L73.5665 119.576C73.4287 119.507 73.2909 119.438 73.0843 119.438C72.8776 119.369 72.671 119.369 72.3955 119.369C72.1199 119.369 71.9133 119.438 71.7066 119.507C71.5 119.576 71.3622 119.783 71.2245 119.99C71.0867 120.197 70.9489 120.474 70.8801 120.819C70.8112 121.165 70.7423 121.579 70.7423 122.063C70.7423 122.961 70.8801 123.651 71.1556 124.066C71.4311 124.48 71.7755 124.688 72.2577 124.688C72.3955 124.688 72.5332 124.688 72.671 124.619C72.8088 124.549 72.9465 124.48 73.0154 124.411V122.892L71.7755 122.753V121.924ZM64.0607 118.332H67.7803V119.576H65.3695V121.441H67.5737V122.684H65.3695V124.619H67.7803V125.862H64.0607V118.332ZM62.6142 125.793H58.619V118.263H59.9966V124.549H62.6142V125.793ZM51.1108 118.332H54.8304V119.576H52.4196V121.51H54.6238V122.753H52.4196V125.793H51.0419V118.332H51.1108ZM45.6002 122.063C45.6002 122.408 45.6002 122.822 45.6691 123.099C45.738 123.444 45.8068 123.72 45.8757 123.928C45.9446 124.135 46.0824 124.342 46.289 124.48C46.4268 124.619 46.6334 124.688 46.8401 124.688C47.2534 124.688 47.5978 124.48 47.8044 124.066C48.0111 123.651 48.1488 122.961 48.1488 122.063C48.1488 121.717 48.1488 121.372 48.08 121.026C48.0111 120.681 47.9422 120.405 47.8733 120.197C47.8044 119.99 47.6667 119.783 47.46 119.645C47.3223 119.507 47.1156 119.438 46.8401 119.438C46.0135 119.369 45.6002 120.267 45.6002 122.063ZM44.1537 122.063C44.1537 120.819 44.3603 119.852 44.7736 119.161C45.1869 118.47 45.8757 118.194 46.7712 118.194C47.2534 118.194 47.6667 118.263 47.9422 118.47C48.2866 118.678 48.5621 118.885 48.7688 119.23C48.9754 119.576 49.1132 119.99 49.251 120.474C49.3198 120.957 49.3887 121.51 49.3887 122.063C49.3887 123.306 49.1821 124.273 48.6999 124.964C48.2866 125.655 47.5978 125.931 46.7023 125.931C46.2201 125.931 45.8068 125.862 45.5313 125.655C45.1869 125.447 44.9114 125.24 44.7047 124.895C44.4981 124.549 44.3603 124.135 44.2225 123.651C44.2225 123.168 44.1537 122.684 44.1537 122.063ZM37.1965 122.132L36.7144 120.819H36.6455L36.7832 122.132V125.862H35.5433V118.263H36.5766L38.7119 122.063L39.1941 123.375H39.263L39.1252 122.132V118.401H40.3651V126H39.3319L37.1965 122.132ZM29.9639 122.063C29.9639 122.408 29.9639 122.822 30.0328 123.099C30.1016 123.444 30.1705 123.72 30.2394 123.928C30.3083 124.135 30.446 124.342 30.6527 124.48C30.7905 124.619 30.9971 124.688 31.2038 124.688C31.617 124.688 31.9615 124.48 32.1681 124.066C32.3748 123.651 32.5125 122.961 32.5125 122.063C32.5125 121.717 32.5125 121.372 32.4436 121.026C32.3748 120.681 32.3059 120.405 32.237 120.197C32.1681 119.99 32.0303 119.783 31.8237 119.645C31.6859 119.507 31.4793 119.438 31.2038 119.438C30.3772 119.369 29.9639 120.267 29.9639 122.063ZM28.5862 122.063C28.5862 120.819 28.7929 119.852 29.2062 119.161C29.6195 118.47 30.3083 118.194 31.2038 118.194C31.6859 118.194 32.0992 118.263 32.3748 118.47C32.7192 118.678 32.9947 118.885 33.2013 119.23C33.408 119.576 33.5458 119.99 33.6835 120.474C33.7524 120.957 33.8213 121.51 33.8213 122.063C33.8213 123.306 33.6146 124.273 33.1325 124.964C32.7192 125.655 32.0303 125.931 31.1349 125.931C30.6527 125.931 30.2394 125.862 29.9639 125.655C29.6195 125.447 29.3439 125.24 29.1373 124.895C28.9306 124.549 28.7929 124.135 28.6551 123.651C28.6551 123.168 28.5862 122.684 28.5862 122.063ZM25.4865 118.332H26.8642V125.862H25.4865V118.332ZM20.3892 122.132L19.907 120.819H19.8381L19.9759 122.132V125.862H18.736V118.263H19.7693L21.9046 122.063L22.3868 123.375H22.4557L22.3179 122.132V118.401H23.5578V126H22.5246L20.3892 122.132ZM15.6363 118.332H16.8762V123.237C16.8762 124.204 16.6696 124.895 16.2563 125.378C15.843 125.793 15.2919 126 14.6031 126C13.7765 126 13.1566 125.793 12.8121 125.378C12.3988 124.964 12.2611 124.273 12.2611 123.444V118.401H13.6387V123.237C13.6387 123.79 13.7076 124.204 13.8454 124.48C13.9831 124.688 14.2587 124.826 14.6031 124.826C14.9475 124.826 15.223 124.688 15.3608 124.48C15.4986 124.204 15.5674 123.859 15.5674 123.306V118.332H15.6363ZM140.727 108.869H142.931V110.112H140.727V108.869ZM134.39 108.869L133.908 107.556H133.839L133.976 108.869V112.599H132.736V105H133.77L135.905 108.799L136.387 110.112H136.456L136.318 108.869V105.138H137.558V112.737H136.525L134.39 108.869ZM128.121 109.767H129.361L128.948 108.04L128.81 106.865H128.741L128.535 108.04L128.121 109.767ZM129.568 110.803H127.777L127.364 112.53H126.055L128.259 104.931H129.292L131.497 112.53H130.05L129.568 110.803ZM125.848 106.313H124.057V112.599H122.68V106.313H120.889V105.069H125.779V106.313H125.848ZM118.409 110.595C118.409 110.388 118.34 110.181 118.202 110.043C118.065 109.905 117.927 109.697 117.72 109.559C117.513 109.421 117.307 109.283 117.031 109.145C116.825 109.007 116.549 108.799 116.342 108.592C116.136 108.385 115.998 108.178 115.86 107.901C115.723 107.625 115.654 107.28 115.654 106.934C115.654 106.589 115.723 106.244 115.791 106.036C115.929 105.76 116.067 105.553 116.274 105.415C116.48 105.276 116.687 105.138 116.962 105.069C117.238 105 117.513 104.931 117.789 104.931C118.133 104.931 118.478 105 118.822 105.069C119.167 105.138 119.373 105.207 119.58 105.345L119.167 106.52C119.029 106.451 118.891 106.382 118.616 106.313C118.409 106.244 118.133 106.174 117.858 106.174C117.582 106.174 117.376 106.244 117.238 106.313C117.1 106.451 117.031 106.589 117.031 106.796C117.031 107.003 117.1 107.142 117.238 107.349C117.376 107.487 117.513 107.625 117.72 107.763C117.927 107.901 118.133 108.04 118.409 108.178C118.616 108.316 118.891 108.523 119.098 108.73C119.304 108.938 119.442 109.145 119.58 109.421C119.718 109.697 119.787 110.043 119.787 110.388C119.787 110.734 119.718 111.079 119.649 111.355C119.511 111.632 119.373 111.839 119.167 112.046C118.96 112.253 118.684 112.392 118.409 112.461C118.133 112.53 117.789 112.599 117.445 112.599C117.031 112.599 116.618 112.53 116.274 112.461C115.929 112.392 115.654 112.253 115.516 112.184L115.929 110.941C116.067 111.01 116.274 111.079 116.549 111.217C116.825 111.286 117.1 111.355 117.376 111.355C118.065 111.424 118.409 111.148 118.409 110.595ZM112.623 109.352H110.556V112.53H109.179V105H110.556V108.109H112.623V105H114V112.53H112.623V109.352ZM104.426 109.352H104.15V112.599H102.773V105.069H104.15V108.385L104.426 108.247L106.01 105.069H107.526L105.803 108.247L105.321 108.661L105.803 109.076L107.801 112.599H106.148L104.426 109.352ZM98.1575 109.767H99.3974L98.9841 108.04L98.8463 106.865H98.7774L98.5708 108.04L98.1575 109.767ZM99.604 110.803H97.8131L97.3998 112.53H96.091L98.2953 104.931H99.3285L101.533 112.53H100.086L99.604 110.803ZM90.9248 111.286L93.4046 106.727L93.8868 106.313H90.9248V105.069H95.2644V106.313L92.7158 110.941L92.3025 111.355H95.2644V112.599H90.9248V111.286ZM86.723 109.767H87.9629L87.5496 108.04L87.4118 106.865H87.343L87.1363 108.04L86.723 109.767ZM88.2384 110.803H86.4475L86.0342 112.53H84.7254L86.9297 104.931H87.9629L90.1671 112.53H88.7206L88.2384 110.803ZM80.6614 109.352H80.3858V112.599H79.0082V105.069H80.3858V108.385L80.6614 108.247L82.2457 105.069H83.7611L82.039 108.247L81.5568 108.661L82.039 109.076L84.0366 112.599H82.3834L80.6614 109.352ZM71.5 105.069H75.2196V106.313H72.8088V108.247H75.013V109.49H72.8088V112.53H71.4311V105.069H71.5ZM65.9894 108.799C65.9894 109.145 65.9894 109.559 66.0583 109.836C66.1272 110.181 66.196 110.457 66.2649 110.665C66.3338 110.872 66.4716 111.079 66.6782 111.217C66.816 111.355 67.0226 111.424 67.2293 111.424C67.6426 111.424 67.987 111.217 68.1936 110.803C68.4003 110.388 68.538 109.697 68.538 108.799C68.538 108.454 68.538 108.109 68.4692 107.763C68.4003 107.418 68.3314 107.142 68.2625 106.934C68.1936 106.727 68.0559 106.52 67.8492 106.382C67.7115 106.244 67.5048 106.174 67.2293 106.174C66.4027 106.105 65.9894 107.003 65.9894 108.799ZM64.5429 108.799C64.5429 107.556 64.7495 106.589 65.1628 105.898C65.5761 105.207 66.2649 104.931 67.1604 104.931C67.6426 104.931 68.0559 105 68.3314 105.207C68.6758 105.415 68.9513 105.622 69.158 105.967C69.3646 106.313 69.5024 106.727 69.6402 107.211C69.709 107.694 69.7779 108.247 69.7779 108.799C69.7779 110.043 69.5713 111.01 69.0891 111.701C68.6758 112.392 67.987 112.668 67.0915 112.668C66.6093 112.668 66.196 112.599 65.9205 112.392C65.5761 112.184 65.3006 111.977 65.0939 111.632C64.8873 111.286 64.7495 110.872 64.6117 110.388C64.6117 109.905 64.5429 109.352 64.5429 108.799ZM59.5833 110.595C59.5833 110.388 59.5144 110.181 59.3767 110.043C59.2389 109.905 59.1012 109.697 58.8945 109.559C58.6879 109.421 58.4812 109.283 58.2057 109.145C57.999 109.007 57.7235 108.799 57.5169 108.592C57.3102 108.385 57.1724 108.178 57.0347 107.901C56.8969 107.625 56.828 107.28 56.828 106.934C56.828 106.589 56.8969 106.244 56.9658 106.036C57.1036 105.76 57.2413 105.553 57.448 105.415C57.6546 105.276 57.8613 105.138 58.1368 105.069C58.4123 105 58.6879 104.931 58.9634 104.931C59.3078 104.931 59.6522 105 59.9966 105.069C60.341 105.138 60.5477 105.207 60.7543 105.345L60.341 106.52C60.2033 106.451 60.0655 106.382 59.79 106.313C59.5833 106.244 59.3078 106.174 59.0323 106.174C58.7567 106.174 58.5501 106.244 58.4123 106.313C58.2746 106.451 58.2057 106.589 58.2057 106.796C58.2057 107.003 58.2746 107.142 58.4123 107.349C58.5501 107.487 58.6879 107.625 58.8945 107.763C59.1012 107.901 59.3078 108.04 59.5833 108.178C59.79 108.316 60.0655 108.523 60.2722 108.73C60.4788 108.938 60.6166 109.145 60.7543 109.421C60.8921 109.697 60.961 110.043 60.961 110.388C60.961 110.734 60.8921 111.079 60.8232 111.355C60.6854 111.632 60.5477 111.839 60.341 112.046C60.1344 112.253 59.9277 112.392 59.5833 112.461C59.3078 112.53 58.9634 112.599 58.619 112.599C58.2057 112.599 57.7924 112.53 57.448 112.461C57.1036 112.392 56.828 112.253 56.6903 112.184L57.1036 110.941C57.2413 111.01 57.448 111.079 57.7235 111.217C57.999 111.286 58.2746 111.355 58.5501 111.355C59.2389 111.424 59.5833 111.148 59.5833 110.595ZM52.0063 108.869L51.5241 107.556H51.4552L51.593 108.869V112.599H50.3531V105H51.3863L53.5217 108.799L54.0038 110.112H54.0727L53.935 108.869V105.138H55.1749V112.737H54.1416L52.0063 108.869ZM44.8425 108.799C44.8425 109.145 44.8425 109.559 44.9114 109.836C44.9802 110.181 45.0491 110.457 45.118 110.665C45.1869 110.872 45.3247 111.079 45.5313 111.217C45.6691 111.355 45.8757 111.424 46.0824 111.424C46.4957 111.424 46.8401 111.217 47.0467 110.803C47.2534 110.388 47.3911 109.697 47.3911 108.799C47.3911 108.454 47.3911 108.109 47.3222 107.763C47.2534 107.418 47.1845 107.142 47.1156 106.934C47.0467 106.727 46.909 106.52 46.7023 106.382C46.5645 106.244 46.3579 106.174 46.0824 106.174C45.2558 106.105 44.8425 107.003 44.8425 108.799ZM43.396 108.799C43.396 107.556 43.6026 106.589 44.0159 105.898C44.4292 105.207 45.118 104.931 46.0135 104.931C46.4957 104.931 46.909 105 47.1845 105.207C47.5289 105.415 47.8044 105.622 48.0111 105.967C48.2177 106.313 48.3555 106.727 48.4933 107.211C48.5621 107.694 48.631 108.247 48.631 108.799C48.631 110.043 48.4244 111.01 47.9422 111.701C47.5289 112.392 46.8401 112.668 45.9446 112.668C45.4624 112.668 45.0491 112.599 44.7736 112.392C44.4292 112.184 44.1537 111.977 43.947 111.632C43.7404 111.286 43.6026 110.872 43.4648 110.388C43.4648 109.905 43.396 109.352 43.396 108.799ZM40.2962 105.069H41.6739V112.599H40.2962V105.069ZM38.7808 106.313H36.9899V112.599H35.6122V106.313H33.8213V105.069H38.7119V106.313H38.7808ZM30.3083 109.767H31.5482L31.1349 108.04L30.9971 106.865H30.9282L30.7216 108.04L30.3083 109.767ZM31.7548 110.803H29.9639L29.5506 112.53H28.2418L30.446 104.931H31.4793L33.6835 112.53H32.237L31.7548 110.803ZM24.1777 108.523H24.6599C25.0043 108.523 25.2799 108.454 25.4176 108.247C25.5554 108.04 25.6932 107.694 25.6932 107.28C25.6932 106.934 25.6243 106.727 25.4865 106.52C25.3487 106.313 25.1421 106.244 24.7977 106.244C24.6599 106.244 24.591 106.244 24.4533 106.244C24.3155 106.244 24.2466 106.244 24.1777 106.313V108.523ZM22.869 105.138C23.1445 105.069 23.4889 105 23.8333 105C24.1777 105 24.4533 104.931 24.7288 104.931C25.0043 104.931 25.3487 104.931 25.6243 105C25.8998 105.069 26.1753 105.138 26.382 105.345C26.5886 105.484 26.7953 105.691 26.933 105.967C27.0708 106.244 27.1397 106.589 27.1397 107.003C27.1397 107.625 27.0019 108.109 26.7953 108.523C26.5886 108.938 26.2442 109.145 25.8998 109.283L26.3131 109.628L27.6908 112.53H26.1065L24.7977 109.559L24.2466 109.421V112.53H22.869V105.138ZM17.3584 105.069H21.078V106.313H18.6671V108.178H20.8714V109.421H18.6671V111.355H21.078V112.599H17.2895V105.069H17.3584ZM12.7433 106.174C12.6055 106.174 12.5366 106.174 12.3988 106.174C12.2611 106.174 12.1922 106.174 12.1233 106.174V111.355C12.1233 111.355 12.1922 111.355 12.2611 111.355C12.33 111.355 12.3988 111.355 12.3988 111.355C12.4677 111.355 12.5366 111.355 12.5366 111.355C12.6055 111.355 12.6055 111.355 12.6744 111.355C13.0188 111.355 13.2254 111.286 13.4321 111.148C13.6387 111.01 13.7765 110.803 13.9143 110.526C14.052 110.25 14.1209 109.974 14.1898 109.628C14.2587 109.283 14.2587 108.938 14.2587 108.592C14.2587 108.247 14.2587 107.97 14.1898 107.625C14.1209 107.349 14.052 107.072 13.9831 106.796C13.8454 106.589 13.7076 106.382 13.501 106.244C13.3632 106.244 13.0877 106.174 12.7433 106.174ZM10.8145 105.069C10.9523 105.069 11.0901 105 11.2278 105C11.3656 105 11.5723 105 11.71 105C11.8478 105 12.0544 105 12.1922 105C12.33 105 12.4677 105 12.6055 105C13.2254 105 13.7076 105.069 14.1209 105.276C14.5342 105.484 14.8097 105.691 15.0853 106.036C15.2919 106.382 15.4986 106.796 15.5674 107.211C15.6363 107.694 15.7052 108.178 15.7052 108.799C15.7052 109.352 15.6363 109.836 15.5674 110.319C15.4986 110.803 15.2919 111.217 15.0853 111.563C14.8097 111.908 14.5342 112.184 14.1209 112.461C13.7076 112.668 13.1566 112.806 12.5366 112.806C12.4677 112.806 12.33 112.806 12.1922 112.806C12.0544 112.806 11.8478 112.806 11.71 112.806C11.5723 112.806 11.3656 112.806 11.2278 112.806C11.0901 112.806 10.9523 112.806 10.8834 112.737V105.069H10.8145ZM5.37283 105.069H9.09248V106.313H6.6816V108.178H8.88584V109.421H6.6816V111.355H9.09248V112.599H5.37283V105.069ZM0 105.069H3.71965V106.313H1.37765V108.247H3.58189V109.49H1.37765V112.53H0V105.069ZM135.492 96.4343H136.732L136.318 94.7073L136.181 93.533H136.112L135.905 94.7073L135.492 96.4343ZM137.007 97.5396H135.216L134.803 99.2665H133.494L135.698 91.6679H136.732L138.936 99.2665H137.489L137.007 97.5396ZM130.808 95.3981L130.946 93.9475H130.877L130.463 95.26L129.223 97.885H128.81L127.501 95.26L127.088 93.9475H127.019L127.226 95.3981V99.2665H125.986V91.7369H127.295L128.879 94.9837L129.155 95.9507H129.223L129.499 94.9837L130.946 91.7369H132.185V99.2665H130.808V95.3981ZM122.817 95.3981L122.955 93.9475H122.886L122.473 95.26L121.233 97.885H120.751L119.442 95.26L119.167 93.9475H119.098L119.304 95.3981V99.2665H118.065V91.7369H119.373L120.958 94.9837L121.233 95.9507H121.302L121.578 94.9837L123.024 91.7369H124.264V99.2665H122.886V95.3981H122.817ZM111.245 92.9113C111.107 92.9113 111.039 92.9113 110.901 92.9113C110.763 92.9113 110.694 92.9113 110.625 92.9113V98.0922C110.625 98.0922 110.694 98.0922 110.763 98.0922C110.832 98.0922 110.901 98.0922 110.901 98.0922C110.97 98.0922 111.039 98.0922 111.039 98.0922C111.107 98.0922 111.107 98.0922 111.176 98.0922C111.521 98.0922 111.727 98.0231 111.934 97.885C112.141 97.7468 112.278 97.5396 112.416 97.2633C112.554 96.9869 112.623 96.7106 112.692 96.3652C112.761 96.0198 112.761 95.6744 112.761 95.329C112.761 94.9837 112.761 94.7073 112.692 94.3619C112.623 94.0856 112.554 93.8093 112.485 93.533C112.347 93.3258 112.21 93.1185 112.003 92.9804C111.796 92.9804 111.59 92.9113 111.245 92.9113ZM109.248 91.7369C109.385 91.7369 109.523 91.6679 109.661 91.6679C109.799 91.6679 110.005 91.6679 110.143 91.6679C110.281 91.6679 110.487 91.6679 110.625 91.6679C110.763 91.6679 110.901 91.6679 111.039 91.6679C111.658 91.6679 112.141 91.7369 112.554 91.9442C112.967 92.1514 113.243 92.3586 113.518 92.704C113.725 93.0494 113.932 93.4639 114 93.8784C114.069 94.3619 114.138 94.8455 114.138 95.4672C114.138 96.0198 114.069 96.5034 114 96.9869C113.932 97.4705 113.725 97.885 113.518 98.2304C113.243 98.5758 112.967 98.8521 112.554 99.1284C112.141 99.3356 111.59 99.4738 110.97 99.4738C110.901 99.4738 110.763 99.4738 110.625 99.4738C110.487 99.4738 110.281 99.4738 110.143 99.4738C110.005 99.4738 109.799 99.4738 109.661 99.4738C109.523 99.4738 109.385 99.4738 109.316 99.4047V91.7369H109.248ZM103.806 91.7369H107.526V92.9804H105.115V94.8455H107.319V96.0889H105.115V98.0231H107.526V99.2665H103.737V91.7369H103.806ZM102.359 92.9804H100.568V99.2665H99.1907V92.9804H97.3998V91.7369H102.29V92.9804H102.359ZM94.5756 91.7369H95.9533V99.2665H94.5756V91.7369ZM89.4783 95.6054L88.9961 94.2929H88.9273L89.065 95.6054V99.3356H87.8251V91.7369H88.8584L90.9937 95.5363L91.4759 96.8488H91.5448L91.407 95.6054V91.8751H92.6469V99.4738H91.6137L89.4783 95.6054ZM84.7943 91.7369H86.0342V96.6415C86.0342 97.6086 85.8275 98.2994 85.4143 98.783C85.001 99.1975 84.4499 99.4047 83.7611 99.4047C82.9345 99.4047 82.3145 99.1975 81.9701 98.783C81.5568 98.3685 81.4191 97.6777 81.4191 96.8488V91.806H82.7967V96.6415C82.7967 97.1942 82.8656 97.6086 83.0034 97.885C83.1411 98.0922 83.4167 98.2304 83.7611 98.2304C84.1055 98.2304 84.381 98.0922 84.5188 97.885C84.6565 97.6086 84.7254 97.2633 84.7254 96.7106V91.7369H84.7943ZM73.9109 91.7369H77.6305V92.9804H75.2196V94.9146H77.4239V96.158H75.2196V99.1975H73.842V91.7369H73.9109ZM68.4003 95.5363C68.4003 95.8817 68.4003 96.2962 68.4692 96.5725C68.538 96.9179 68.6069 97.1942 68.6758 97.4014C68.7447 97.6087 68.8825 97.8159 69.0891 97.954C69.2269 98.0922 69.4335 98.1613 69.6402 98.1613C70.0535 98.1613 70.3979 97.954 70.6045 97.5396C70.8112 97.1251 70.9489 96.4343 70.9489 95.5363C70.9489 95.1909 70.9489 94.8455 70.8801 94.5001C70.8112 94.1547 70.7423 93.8784 70.6734 93.6712C70.6045 93.4639 70.4668 93.2567 70.2601 93.1185C70.1223 92.9804 69.9157 92.9113 69.6402 92.9113C68.8136 92.8422 68.4003 93.7402 68.4003 95.5363ZM67.0226 95.5363C67.0226 94.2929 67.2293 93.3258 67.6426 92.635C68.0559 91.9442 68.7447 91.6679 69.6402 91.6679C70.1223 91.6679 70.5356 91.7369 70.8112 91.9442C71.1556 92.1514 71.4311 92.3586 71.6378 92.704C71.8444 93.0494 71.9822 93.4639 72.1199 93.9475C72.2577 94.431 72.2577 94.9837 72.2577 95.5363C72.2577 96.7797 72.0511 97.7468 71.5689 98.4376C71.1556 99.1284 70.4668 99.4047 69.5713 99.4047C69.0891 99.4047 68.6758 99.3356 68.4003 99.1284C68.0559 98.9212 67.7803 98.7139 67.5737 98.3685C67.367 98.0231 67.2293 97.6087 67.0915 97.1251C67.0226 96.6415 67.0226 96.0889 67.0226 95.5363ZM59.9966 95.6054L59.5144 94.2929H59.4456L59.5833 95.6054V99.3356H58.3434V91.7369H59.3767L61.512 95.5363L61.9942 96.8488H62.0631L61.9253 95.6054V91.8751H63.1652V99.4738H62.132L59.9966 95.6054ZM52.8328 95.5363C52.8328 95.8817 52.8328 96.2962 52.9017 96.5725C52.9706 96.9179 53.0395 97.1942 53.1084 97.4014C53.1773 97.6087 53.315 97.8159 53.5217 97.954C53.6594 98.0922 53.8661 98.1613 54.0727 98.1613C54.486 98.1613 54.8304 97.954 55.0371 97.5396C55.2437 97.1251 55.3815 96.4343 55.3815 95.5363C55.3815 95.1909 55.3815 94.8455 55.3126 94.5001C55.2437 94.1547 55.1749 93.8784 55.106 93.6712C55.0371 93.4639 54.8993 93.2567 54.6927 93.1185C54.5549 92.9804 54.3483 92.9113 54.0727 92.9113C53.2461 92.8422 52.8328 93.7402 52.8328 95.5363ZM51.3863 95.5363C51.3863 94.2929 51.593 93.3258 52.0063 92.635C52.4196 91.9442 53.1084 91.6679 54.0038 91.6679C54.486 91.6679 54.8993 91.7369 55.1749 91.9442C55.5193 92.1514 55.7948 92.3586 56.0014 92.704C56.2081 93.0494 56.3459 93.4639 56.4836 93.9475C56.5525 94.431 56.6214 94.9837 56.6214 95.5363C56.6214 96.7797 56.4147 97.7468 55.9326 98.4376C55.5193 99.1284 54.8304 99.4047 53.935 99.4047C53.4528 99.4047 53.0395 99.3356 52.764 99.1284C52.4196 98.9212 52.144 98.7139 51.9374 98.3685C51.7307 98.0231 51.593 97.6087 51.4552 97.1251C51.4552 96.6415 51.3863 96.0889 51.3863 95.5363ZM48.2866 91.7369H49.6643V99.2665H48.2866V91.7369ZM46.7712 92.9804H44.9802V99.2665H43.6026V92.9804H41.8117V91.7369H46.7023V92.9804H46.7712ZM38.2986 96.4343H39.5385L39.1252 94.7073L38.9875 93.533H38.9186L38.7119 94.7073L38.2986 96.4343ZM39.7452 97.5396H37.9542L37.5409 99.2665H36.2322L38.4364 91.6679H39.4697L41.6739 99.2665H40.2274L39.7452 97.5396ZM33.408 91.7369H34.7856V99.2665H33.408V91.7369ZM31.8237 98.9902C31.6171 99.1284 31.4104 99.2665 31.066 99.3356C30.7216 99.4047 30.446 99.4738 30.1705 99.4738C29.7572 99.4738 29.4128 99.4047 29.0684 99.2665C28.724 99.1284 28.4485 98.9211 28.1729 98.5758C27.8974 98.2994 27.7596 97.885 27.553 97.3323C27.4152 96.8488 27.3463 96.2271 27.3463 95.4672C27.3463 94.7073 27.4152 94.0856 27.553 93.6021C27.6907 93.1185 27.8974 92.704 28.1729 92.4277C28.4485 92.1514 28.724 91.9442 29.0684 91.806C29.4128 91.6679 29.7572 91.5988 30.1016 91.5988C30.446 91.5988 30.7905 91.5988 30.9971 91.6679C31.2726 91.7369 31.4793 91.806 31.6171 91.8751L31.3415 93.0494C31.2038 92.9804 31.066 92.9113 30.8593 92.9113C30.6527 92.8422 30.446 92.8422 30.2394 92.8422C29.7572 92.8422 29.3439 93.0494 29.1373 93.4639C28.8617 93.8784 28.724 94.5692 28.724 95.4672C28.724 95.8817 28.724 96.2271 28.7929 96.5725C28.8617 96.9179 28.9306 97.1942 29.0684 97.4014C29.2062 97.6087 29.3439 97.8159 29.5506 97.954C29.7572 98.0922 30.0328 98.1613 30.3083 98.1613C30.5838 98.1613 30.7905 98.1613 30.9282 98.0922C31.1349 98.0231 31.2726 97.954 31.4104 97.885L31.8237 98.9902ZM22.0424 95.5363C22.0424 95.8817 22.0424 96.2962 22.1113 96.5725C22.1802 96.9179 22.249 97.1942 22.3179 97.4014C22.3868 97.6087 22.5246 97.8159 22.7312 97.954C22.869 98.0922 23.0756 98.1613 23.2823 98.1613C23.6956 98.1613 24.04 97.954 24.2466 97.5396C24.4533 97.1251 24.591 96.4343 24.591 95.5363C24.591 95.1909 24.591 94.8455 24.5222 94.5001C24.4533 94.1547 24.3844 93.8784 24.3155 93.6712C24.2466 93.4639 24.1089 93.2567 23.9022 93.1185C23.7644 92.9804 23.5578 92.9113 23.2823 92.9113C22.4557 92.8422 22.0424 93.7402 22.0424 95.5363ZM20.5959 95.5363C20.5959 94.2929 20.8025 93.3258 21.2158 92.635C21.6291 91.9442 22.3179 91.6679 23.2134 91.6679C23.6956 91.6679 24.1089 91.7369 24.3844 91.9442C24.7288 92.1514 25.0043 92.3586 25.211 92.704C25.4176 93.0494 25.5554 93.4639 25.6932 93.9475C25.8309 94.431 25.8309 94.9837 25.8309 95.5363C25.8309 96.7797 25.6243 97.7468 25.1421 98.4376C24.7288 99.1284 24.04 99.4047 23.1445 99.4047C22.6623 99.4047 22.249 99.3356 21.9735 99.1284C21.6291 98.9212 21.3536 98.7139 21.1469 98.3685C20.9403 98.0231 20.8025 97.6087 20.6647 97.1251C20.6647 96.6415 20.5959 96.0889 20.5959 95.5363ZM17.8406 97.3323C17.8406 97.1251 17.7717 96.9179 17.6339 96.7797C17.4961 96.6415 17.3584 96.4343 17.1517 96.2961C16.9451 96.158 16.7384 96.0198 16.4629 95.8817C16.2563 95.7435 15.9807 95.5363 15.7741 95.329C15.5674 95.1218 15.4297 94.9146 15.2919 94.6383C15.1541 94.3619 15.0853 94.0165 15.0853 93.6712C15.0853 93.3258 15.1541 92.9804 15.223 92.7731C15.3608 92.4968 15.4986 92.2896 15.7052 92.1514C15.9118 92.0133 16.1185 91.8751 16.394 91.806C16.6696 91.7369 16.9451 91.6679 17.2206 91.6679C17.565 91.6679 17.9094 91.7369 18.2539 91.806C18.5983 91.8751 18.8049 91.9442 19.0116 92.0823L18.5983 93.2567C18.4605 93.1876 18.3227 93.1185 18.0472 93.0494C17.8406 92.9804 17.565 92.9113 17.2895 92.9113C17.014 92.9113 16.8073 92.9804 16.6696 93.0494C16.5318 93.1876 16.4629 93.3258 16.4629 93.533C16.4629 93.7402 16.5318 93.8784 16.6696 94.0856C16.8073 94.2238 16.9451 94.3619 17.1517 94.5001C17.3584 94.6383 17.565 94.7764 17.8406 94.9146C18.0472 95.0527 18.3227 95.26 18.5294 95.4672C18.736 95.6744 18.8738 95.8817 19.0116 96.158C19.1493 96.4343 19.2182 96.7797 19.2182 97.1251C19.2182 97.4705 19.1493 97.8159 19.0804 98.0922C18.9427 98.3685 18.8049 98.5758 18.5983 98.783C18.3916 98.9902 18.1161 99.1284 17.8406 99.1975C17.565 99.2665 17.2206 99.3356 16.8762 99.3356C16.4629 99.3356 16.0496 99.2665 15.7052 99.1975C15.3608 99.1284 15.0853 98.9902 14.9475 98.9211L15.3608 97.6777C15.4986 97.7468 15.7052 97.8159 15.9807 97.954C16.2563 98.0231 16.5318 98.0922 16.8073 98.0922C17.4961 98.1613 17.8406 97.885 17.8406 97.3323ZM12.33 97.3323C12.33 97.1251 12.2611 96.9179 12.1233 96.7797C11.9855 96.6415 11.8478 96.4343 11.6411 96.2961C11.4345 96.158 11.2278 96.0198 10.9523 95.8817C10.7457 95.7435 10.4701 95.5363 10.2635 95.329C10.0568 95.1218 9.91907 94.9146 9.78131 94.6383C9.64354 94.3619 9.57466 94.0165 9.57466 93.6712C9.57466 93.3258 9.64354 92.9804 9.71243 92.7731C9.85019 92.4968 9.98796 92.2896 10.1946 92.1514C10.4013 92.0133 10.6079 91.8751 10.8834 91.806C11.159 91.7369 11.4345 91.6679 11.71 91.6679C12.0544 91.6679 12.3988 91.7369 12.7433 91.806C13.0877 91.8751 13.2943 91.9442 13.501 92.0823L13.0877 93.2567C12.9499 93.1876 12.8121 93.1185 12.5366 93.0494C12.33 92.9804 12.0544 92.9113 11.7789 92.9113C11.5034 92.9113 11.2967 92.9804 11.159 93.0494C11.0212 93.1876 10.9523 93.3258 10.9523 93.533C10.9523 93.7402 11.0212 93.8784 11.159 94.0856C11.2967 94.2238 11.4345 94.3619 11.6411 94.5001C11.8478 94.6383 12.0544 94.7764 12.33 94.9146C12.5366 95.0527 12.8121 95.26 13.0188 95.4672C13.2254 95.6744 13.3632 95.8817 13.501 96.158C13.6387 96.4343 13.7076 96.7797 13.7076 97.1251C13.7076 97.4705 13.6387 97.8159 13.5698 98.0922C13.4321 98.3685 13.2943 98.5758 13.0877 98.783C12.881 98.9902 12.6055 99.1284 12.33 99.1975C12.0544 99.2665 11.71 99.3356 11.3656 99.3356C10.9523 99.3356 10.539 99.2665 10.1946 99.1975C9.85019 99.1284 9.57466 98.9902 9.4369 98.9211L9.85019 97.6777C9.98796 97.7468 10.1946 97.8159 10.4701 97.954C10.7457 98.0231 11.0212 98.0922 11.2967 98.0922C11.9855 98.1613 12.33 97.885 12.33 97.3323ZM5.02842 96.4343H6.2683L5.85501 94.7073L5.71724 93.533H5.64836L5.44171 94.7073L5.02842 96.4343ZM6.47495 97.5396H4.75289L4.33959 99.2665H2.96195L5.16618 91.6679H6.19942L8.40366 99.2665H6.95713L6.47495 97.5396ZM32.3748 79.0955V70.0462H29.2062V63.0692L33.9591 69.2863L38.7119 62.5856V70.0462C38.7119 75.5034 42.1561 79.0955 48.9065 79.0955H50.9041V70.0462C48.631 70.0462 47.7355 69.079 47.7355 66.454V54.2271H50.9041V45.1777H42.2938L42.2249 45.385L33.9591 57.0593L27.4152 48.4935C25.762 46.3521 22.9379 45.1777 19.0116 45.1777H17.014V54.2271C19.2182 54.2962 20.1826 55.1942 20.1826 57.8192V70.0462H17.014V79.0955H32.3748Z" fill="white"/>
<path fill-rule="evenodd" clip-rule="evenodd" d="M122.129 35.5757C91.6826 33.4342 101.257 -10.4309 12.95 2.34871C66.9538 4.07568 80.7992 50.8421 122.129 35.5757Z" fill="#D24A43"/>
<path fill-rule="evenodd" clip-rule="evenodd" d="M70.3979 26.319C55.106 27.2861 56.9658 4.83545 13.9143 17.0624C40.8473 14.3683 50.8353 36.6808 70.3979 26.319ZM114.345 24.0394C103.737 21.5526 109.592 6.56242 77.6306 6.14795C96.5733 9.74005 98.8464 27.0789 114.345 24.0394Z" fill="#DD7E55"/>
</g>
<defs>
<clipPath id="clip0">
<rect width="143" height="126" fill="white"/>
</clipPath>
</defs>
</svg>
