<svg width="18" height="27" viewBox="0 0 18 27" fill="none" xmlns="http://www.w3.org/2000/svg">
<path fill-rule="evenodd" clip-rule="evenodd" d="M0 8.99564C0 4.03562 4.03728 0 9 0C13.9626 0 18 4.03562 18 8.99564V18.0049C18 22.9649 13.9627 27 9 27C4.03728 27 0 22.9648 0 18.0049V8.99564ZM9 26C13.4112 26 17 22.4135 17 18.0049V8.99564C17 4.58687 13.4112 0.999986 9 0.999986C4.5888 0.999986 0.999986 4.587 0.999986 8.99564V18.0049C0.999986 22.4135 4.5888 26 9 26Z" fill="#E8D8BD"/>
<path fill-rule="evenodd" clip-rule="evenodd" d="M8.5 2C8.22389 2 8 2.2023 8 2.4523V6.5477C8 6.7977 8.22389 7 8.5 7C8.77611 7 9 6.7977 9 6.5477V2.4523C8.99987 2.2023 8.77611 2 8.5 2Z" fill="#E8D8BD"/>
</svg>
