<svg width="13" height="13" viewBox="0 0 13 13" fill="none" xmlns="http://www.w3.org/2000/svg">
<path fill-rule="evenodd" clip-rule="evenodd" d="M6.50061 0C4.7353 0 4.51375 0.00771875 3.82041 0.0392708C3.12843 0.0709583 2.65609 0.18051 2.24279 0.34125C1.81528 0.507271 1.45263 0.729354 1.09133 1.09078C0.729765 1.45207 0.50768 1.81472 0.341115 2.24209C0.179968 2.65552 0.0702791 3.12799 0.039133 3.8197C0.00812223 4.51303 -2.86102e-06 4.73471 -2.86102e-06 6.5C-2.86102e-06 8.26529 0.00785139 8.48616 0.0392684 9.17949C0.0710916 9.87147 0.180645 10.3438 0.341251 10.7571C0.507409 11.1846 0.729494 11.5473 1.09093 11.9085C1.45209 12.2701 1.81473 12.4927 2.24198 12.6588C2.65555 12.8195 3.12802 12.929 3.81987 12.9607C4.51321 12.9923 4.73462 13 6.49979 13C8.26524 13 8.48611 12.9923 9.17945 12.9607C9.87143 12.929 10.3443 12.8195 10.7579 12.6588C11.1853 12.4927 11.5474 12.2701 11.9085 11.9085C12.2701 11.5473 12.4922 11.1846 12.6587 10.7572C12.8185 10.3438 12.9282 9.87133 12.9607 9.17963C12.9919 8.48629 13 8.26529 13 6.5C13 4.73471 12.9919 4.51317 12.9607 3.81983C12.9282 3.12785 12.8185 2.65552 12.6587 2.24223C12.4922 1.81472 12.2701 1.45207 11.9085 1.09078C11.547 0.729219 11.1854 0.507135 10.7575 0.34125C10.3431 0.18051 9.87049 0.0709583 9.1785 0.0392708C8.48516 0.00771875 8.26443 0 6.49858 0H6.50061ZM5.8982 1.00168C6.07683 1.0014 6.27615 1.00168 6.50007 1.00168C8.2914 1.00168 8.50371 1.00811 9.21111 1.04026C9.86524 1.07017 10.2203 1.17949 10.4568 1.27133C10.7699 1.39295 10.9931 1.53833 11.2278 1.77318C11.4626 2.00803 11.6079 2.2317 11.7298 2.54483C11.8216 2.78107 11.9311 3.13614 11.9609 3.79036C11.993 4.49771 12 4.71019 12 6.50091C12 8.29163 11.993 8.50411 11.9609 9.21145C11.9309 9.86567 11.8216 10.2207 11.7298 10.457C11.6082 10.7701 11.4626 10.9931 11.2278 11.2278C10.9929 11.4626 10.77 11.608 10.4568 11.7296C10.2205 11.8219 9.86524 11.9309 9.21111 11.9609C8.50385 11.993 8.2914 12 6.50007 12C4.7086 12 4.49628 11.993 3.78903 11.9609C3.13489 11.9307 2.77987 11.8213 2.54323 11.7295C2.23014 11.6079 2.0065 11.4625 1.77168 11.2277C1.53687 10.9928 1.3915 10.7697 1.26962 10.4564C1.17779 10.2202 1.06835 9.86511 1.03857 9.21089C1.00643 8.50355 0.999997 8.29107 0.999997 6.49923C0.999997 4.70739 1.00643 4.49603 1.03857 3.78869C1.06849 3.13447 1.17779 2.7794 1.26962 2.54287C1.39122 2.22974 1.53687 2.00607 1.77168 1.77123C2.0065 1.53638 2.23014 1.39099 2.54323 1.2691C2.77973 1.17684 3.13489 1.0678 3.78903 1.03774C4.40794 1.00979 4.64779 1.0014 5.8982 1V1.00168ZM10 2.00035C9.44791 2.00035 9 2.44774 9 3C9 3.55208 9.44791 4 10 4C10.5521 4 11 3.55208 11 3C11 2.44792 10.5521 2 10 2V2.00035ZM6.50028 3C4.56724 3 3 4.56728 3 6.50035C3 8.43343 4.56724 10 6.50028 10C8.43332 10 10 8.43343 10 6.50035C10 4.56728 8.43318 3 6.50014 3H6.50028ZM6.5 4C7.88062 4 9 5.11922 9 6.5C9 7.88062 7.88062 9 6.5 9C5.11922 9 4 7.88062 4 6.5C4 5.11922 5.11922 4 6.5 4Z" fill="white"/>
</svg>
