<svg width="16" height="16" viewBox="0 0 16 16" fill="none" xmlns="http://www.w3.org/2000/svg">
<path fill-rule="evenodd" clip-rule="evenodd" d="M8.03351 15.8625H8.03021C6.6969 15.8621 5.3868 15.5291 4.2232 14.8975L1.14441e-05 16L1.13021 11.8916C0.433047 10.6892 0.0662054 9.32527 0.0668033 7.92791C0.0685509 3.5565 3.64234 0 8.03343 0C10.1646 0.000915384 12.1648 0.826592 13.6689 2.32523C15.173 3.82379 16.0009 5.81574 16 7.93417C15.9982 12.3046 12.4259 15.8607 8.03351 15.8625ZM4.72476 13.034L4.94386 13.164C5.86507 13.7104 6.92104 13.9996 7.99769 14H8.00012C11.3071 14 13.9987 11.3093 14 8.00217C14.0006 6.39953 13.3771 4.89264 12.2443 3.75892C11.1115 2.62521 9.60507 2.00056 8.00248 2C4.69293 2 2.00132 4.69039 2.00001 7.99731C1.99955 9.13062 2.31676 10.2343 2.91737 11.1892L3.06003 11.4162L2.4539 13.6295L4.72476 13.034ZM11.9714 9.45724C11.9222 9.39091 11.791 9.35112 11.5941 9.2715C11.3973 9.19191 10.4296 8.80727 10.2491 8.75416C10.0688 8.70111 9.93749 8.67461 9.80629 8.83374C9.6751 8.99291 9.29788 9.35112 9.18306 9.45724C9.06823 9.56334 8.95341 9.57666 8.75665 9.49704C8.55982 9.41745 7.9256 9.24955 7.17377 8.70779C6.58863 8.28614 6.1936 7.76544 6.07879 7.60624C5.96397 7.44704 6.06655 7.36102 6.16508 7.28172C6.25364 7.21045 6.36193 7.09595 6.46034 7.00313C6.55874 6.9103 6.59155 6.84393 6.65716 6.73788C6.72276 6.63171 6.68997 6.53889 6.64075 6.45929C6.59155 6.37969 6.19791 5.59699 6.03389 5.27859C5.8741 4.96853 5.71184 5.01053 5.59103 5.00563C5.47635 5.00098 5.34499 5 5.21378 5C5.08257 5 4.86932 5.0398 4.6889 5.199C4.50849 5.35819 4.00001 5.7429 4.00001 6.52554C4.00001 7.30824 4.7053 8.06436 4.80372 8.17047C4.90213 8.27664 6.19165 9.88274 8.16616 10.5715C8.63577 10.7354 9.00237 10.8332 9.28826 10.9065C9.75976 11.0275 10.1889 11.0104 10.528 10.9695C10.9062 10.9238 11.6925 10.5848 11.8566 10.2134C12.0205 9.84192 12.0205 9.52354 11.9714 9.45724Z" fill="#FDFDFD"/>
</svg>
