<svg width="13" height="8" viewBox="0 0 13 8" fill="none" xmlns="http://www.w3.org/2000/svg">
<path fill-rule="evenodd" clip-rule="evenodd" d="M7.13754 7.96656C7.13754 7.96656 7.37216 7.93844 7.49233 7.79921C7.60233 7.67164 7.59852 7.43091 7.59852 7.43091C7.59852 7.43091 7.58389 6.30679 8.06776 6.14081C8.54463 5.97758 9.15694 7.2279 9.80676 7.70868C10.2976 8.07218 10.6702 7.99263 10.6702 7.99263L12.4067 7.96656C12.4067 7.96656 13.3146 7.90621 12.8842 7.13599C12.8486 7.07289 12.633 6.56604 11.5934 5.52491C10.5043 4.43509 10.6505 4.61135 11.9616 2.72594C12.7602 1.57781 13.0794 0.876868 12.9795 0.577149C12.8848 0.290461 12.2973 0.366591 12.2973 0.366591L10.3428 0.379623C10.3428 0.379623 10.1978 0.358361 10.0903 0.427633C9.98542 0.495532 9.91739 0.653965 9.91739 0.653965C9.91739 0.653965 9.60838 1.54215 9.19572 2.29796C8.32527 3.89189 7.97747 3.97625 7.83505 3.87749C7.50378 3.64636 7.58644 2.95021 7.58644 2.45571C7.58644 0.910475 7.80389 0.266456 7.16361 0.0997935C6.95124 0.0442391 6.79483 0.00788874 6.25119 0.00171604C5.55369 -0.00582838 4.96363 0.00445945 4.62919 0.180724C4.40665 0.298006 4.23497 0.560003 4.33989 0.575092C4.46896 0.59361 4.76144 0.660138 4.91658 0.887842C5.11687 1.18207 5.10988 1.84187 5.10988 1.84187C5.10988 1.84187 5.22496 3.66076 4.84092 3.8864C4.57769 4.04141 4.21653 3.72523 3.44019 2.27876C3.04279 1.53803 2.74268 0.719121 2.74268 0.719121C2.74268 0.719121 2.68482 0.566176 2.58118 0.483873C2.45592 0.384424 2.28107 0.35356 2.28107 0.35356L0.423805 0.366591C0.423805 0.366591 0.144676 0.374822 0.0423071 0.50582C-0.0486166 0.62173 0.035313 0.862465 0.035313 0.862465C0.035313 0.862465 1.48946 4.53248 3.13626 6.38224C4.64636 8.07767 6.36055 7.96656 6.36055 7.96656H7.13754Z" fill="white"/>
</svg>
