<svg width="10" height="10" viewBox="0 0 10 10" fill="none" xmlns="http://www.w3.org/2000/svg">
<path d="M4.99985 9.48065C7.48047 9.48065 9.48822 7.46515 9.48822 4.99228C9.48822 2.51166 7.47272 0.503906 4.99985 0.503906C2.52698 0.503906 0.511475 2.51166 0.511475 4.99228C0.511475 7.46515 2.51923 9.48065 4.99985 9.48065ZM4.99985 1.13181C7.13163 1.13181 8.86031 2.8605 8.86031 4.99228C8.86031 7.12406 7.13163 8.85274 4.99985 8.85274C2.86806 8.85274 1.13938 7.11631 1.13938 4.99228C1.13938 2.8605 2.86806 1.13181 4.99985 1.13181Z" fill="white"/>
<path d="M4.79049 5.51964H6.28661C6.4649 5.51964 6.60444 5.38011 6.60444 5.20181C6.60444 5.02352 6.4649 4.88398 6.28661 4.88398H5.10831V3.03902C5.10831 2.86073 4.96878 2.72119 4.79049 2.72119C4.61219 2.72119 4.47266 2.86073 4.47266 3.03902V5.20181C4.47266 5.38011 4.61219 5.51964 4.79049 5.51964Z" fill="white"/>
</svg>
